<svg xmlns="http://www.w3.org/2000/svg" width="48" height="48" viewBox="0 0 48 48">
  <g id="그룹_37612" data-name="그룹 37612" transform="translate(-870 -2544)">
    <rect id="사각형_31113" data-name="사각형 31113" width="48" height="48" transform="translate(870 2544)" fill="red" opacity="0"/>
    <path id="패스_4047" data-name="패스 4047" d="M41,19.639v0l0,2.946-1.508,13.1v3.365A1.948,1.948,0,0,1,37.543,41H6.946A1.948,1.948,0,0,1,5,39.054V29.431a1.946,1.946,0,0,1,1.946-1.946H18.331V22.073a10.472,10.472,0,0,1,1.919-6.031,9.081,9.081,0,0,0,1.662-5.235V6.946A1.943,1.943,0,0,1,23.858,5h3.231a1.947,1.947,0,0,1,1.95,1.946v3.861a9.172,9.172,0,0,0,.423,2.746A9.052,9.052,0,0,0,30.7,16.038l0,0a10.338,10.338,0,0,1,.946,1.65h7.4A1.944,1.944,0,0,1,41,19.607v.031ZM24.708,33.724v5.331a1.8,1.8,0,0,1-.085.562H27.5a1.807,1.807,0,0,1-.085-.562V35.689a.126.126,0,0,1,0-.038L25.892,22.593V19.639a1.943,1.943,0,0,1,1.946-1.946H30.1c-.162-.288-.338-.573-.531-.85a10.449,10.449,0,0,1-1.431-2.869,10.587,10.587,0,0,1-.488-3.165V9.585H23.3v1.223a10.444,10.444,0,0,1-1.915,6.031,9.1,9.1,0,0,0-1.665,5.235v5.412h3.046a1.946,1.946,0,0,1,1.946,1.946v4.292ZM39.616,19.643v-.008a.559.559,0,0,0-.562-.558h-.777V21.4a.692.692,0,1,1-1.385,0V19.077H35.619V21.4a.692.692,0,1,1-1.385,0V19.077H32.961V21.4a.692.692,0,0,1-1.385,0V19.077H30.308V21.4a.692.692,0,0,1-1.385,0V19.077H27.838a.56.56,0,0,0-.562.562v2.873l1.442,12.446h9.458l1.435-12.45ZM38.1,39.054V36.343H28.8v2.712a.562.562,0,0,0,.562.562h8.184A.565.565,0,0,0,38.1,39.054ZM27.654,8.2V6.946a.549.549,0,0,0-.165-.4.557.557,0,0,0-.4-.165H23.858a.56.56,0,0,0-.562.562V8.2ZM23.323,39.054V34.416H6.385v4.638a.568.568,0,0,0,.562.562H22.762A.565.565,0,0,0,23.323,39.054Zm0-6.023v-3.6a.562.562,0,0,0-.562-.562H6.946a.565.565,0,0,0-.562.562v3.6Z" transform="translate(871 2545)" stroke="#000" stroke-width="0.3"/>
  </g>
</svg>
