<svg id="ic_home_w" xmlns="http://www.w3.org/2000/svg" width="40" height="40" viewBox="0 0 40 40">
  <g id="그룹_28806" data-name="그룹 28806" transform="translate(-431 -345)">
    <rect id="사각형_26360" data-name="사각형 26360" width="24" height="24" transform="translate(437 351)" fill="rgba(255,133,133,0)" opacity="0.36"/>
    <rect id="사각형_26362" data-name="사각형 26362" width="40" height="40" transform="translate(431 345)" fill="rgba(255,133,133,0)" opacity="0.36"/>
  </g>
  <g id="그룹_36089" data-name="그룹 36089">
    <g id="그룹_36088" data-name="그룹 36088" transform="translate(1.004 0.286)">
      <g id="합치기_133" data-name="합치기 133" transform="translate(7.999 8.713)" fill="rgba(255,255,255,0)">
        <path d="M 7.629879951477051 21.01331901550293 L 0.7519500255584717 21.01331901550293 L 0.7519500255584717 9.63062858581543 L 11.00093555450439 0.9814134240150452 L 21.25 9.632236480712891 L 21.25 21.01163482666016 L 14.36816024780273 21.01315307617188 L 14.36816024780273 16.56414794921875 L 14.36816024780273 15.81414890289307 L 13.61816024780273 15.81414890289307 L 8.379879951477051 15.81414890289307 L 7.629879951477051 15.81414890289307 L 7.629879951477051 16.56414794921875 L 7.629879951477051 21.01331901550293 Z" stroke="none"/>
        <path d="M 6.879879951477051 20.26331901550293 L 6.879879951477051 15.06414890289307 L 15.11816024780273 15.06414890289307 L 15.11816024780273 20.26298713684082 L 20.5 20.26179885864258 L 20.5 9.980635643005371 L 11.00089740753174 1.962824821472168 L 1.501950025558472 9.97907543182373 L 1.501950025558472 20.26331901550293 L 6.879879951477051 20.26331901550293 M 13.61816024780273 21.76331901550293 L 13.61816024780273 16.56414794921875 L 8.379879951477051 16.56414794921875 L 8.379879951477051 21.76331901550293 L 0.001949999947100878 21.76331901550293 L -1.77635683940025e-15 9.283828735351562 L 11.00098037719727 -1.445922862330917e-06 L 22 9.283828735351562 L 22 21.7614688873291 L 13.61816024780273 21.76331901550293 Z" stroke="none" fill="#fff"/>
      </g>
    </g>
    <rect id="사각형_31804" data-name="사각형 31804" width="24" height="24" transform="translate(8 8)" fill="none" opacity="0.36"/>
  </g>
</svg>
