<svg id="ic_heart_w" xmlns="http://www.w3.org/2000/svg" width="40" height="40" viewBox="0 0 40 40">
  <g id="그룹_28805" data-name="그룹 28805" transform="translate(-480 -643)">
    <rect id="사각형_26362" data-name="사각형 26362" width="40" height="40" transform="translate(480 643)" fill="rgba(255,133,133,0)" opacity="0.36"/>
  </g>
  <g id="ic_heart" transform="translate(8 8)">
    <rect id="사각형_26362-2" data-name="사각형 26362" width="24" height="24" fill="rgba(255,133,133,0)" opacity="0.36"/>
    <g id="패스_10412" data-name="패스 10412" transform="translate(0.8 1.92)" fill="none">
      <path d="M11.2,20.16S2.019,12.473.724,9.408C-2.746,1.195,7.166-2.733,11.2,2.115c4.034-4.848,13.946-.921,10.476,7.293C20.381,12.473,11.2,20.16,11.2,20.16Z" stroke="none"/>
      <path d="M 11.20000076293945 18.18724822998047 C 12.09052848815918 17.41758728027344 13.49091243743896 16.18582534790039 14.93558120727539 14.83024501800537 C 19.15373039245605 10.87223434448242 20.08821105957031 9.311374664306641 20.29411125183105 8.82419490814209 C 21.13613128662109 6.831204891204834 21.10003089904785 5.05213451385498 20.18972015380859 3.679314613342285 C 19.2983512878418 2.335064649581909 17.64786148071289 1.500004649162292 15.88235092163086 1.500004649162292 C 14.4514102935791 1.500004649162292 13.19801044464111 2.05925464630127 12.35303115844727 3.074734687805176 L 11.20000076293945 4.460434436798096 L 10.04697036743164 3.074744701385498 C 9.201980590820312 2.05925464630127 7.948580741882324 1.500004649162292 6.517650604248047 1.500004649162292 C 4.752340793609619 1.500004649162292 3.101940870285034 2.335134744644165 2.210500717163086 3.679494619369507 C 1.300130724906921 5.052404880523682 1.263950705528259 6.831414699554443 2.105810880661011 8.824024200439453 C 2.311780691146851 9.311374664306641 3.24626088142395 10.87223434448242 7.464410781860352 14.83024501800537 C 8.909085273742676 16.18582534790039 10.30947113037109 17.41758728027344 11.20000076293945 18.18724822998047 M 11.20000076293945 20.16000556945801 C 11.20000076293945 20.16000556945801 2.019440650939941 12.47277450561523 0.7241407632827759 9.407964706420898 C -2.745889186859131 1.19466507434845 7.165580749511719 -2.7331862449646 11.20000076293945 2.115304708480835 C 15.23442077636719 -2.733185768127441 25.14590072631836 1.194664835929871 21.67584991455078 9.407964706420898 C 20.38055038452148 12.47277450561523 11.20000076293945 20.16000556945801 11.20000076293945 20.16000556945801 Z" stroke="none" fill="#fff"/>
    </g>
  </g>
</svg>
