<svg xmlns="http://www.w3.org/2000/svg" width="48" height="48" viewBox="0 0 48 48">
  <g id="그룹_37624" data-name="그룹 37624" transform="translate(-1587 -2487)" fill="#fff">
    <rect id="사각형_31117" data-name="사각형 31117" width="48" height="48" transform="translate(1587 2487)" fill="red" opacity="0"/>
    <path id="패스_4055" data-name="패스 4055" d="M41.513,47.565a6.052,6.052,0,0,0,0-12.1.416.416,0,1,0,0,.833,5.219,5.219,0,1,1-5.219,5.219.416.416,0,0,0-.833,0A6.059,6.059,0,0,0,41.513,47.565Z" transform="translate(1569.488 2469.486)" stroke="#fff" stroke-width="0.8"/>
    <path id="패스_4056" data-name="패스 4056" d="M45.464,48.7a.416.416,0,0,0,0-.833,2.4,2.4,0,1,1,2.4-2.4.416.416,0,1,0,.833,0A3.234,3.234,0,1,0,45.464,48.7Z" transform="translate(1565.535 2465.535)" stroke="#fff" stroke-width="0.8"/>
    <path id="패스_4057" data-name="패스 4057" d="M38.415,29.384a9.176,9.176,0,0,0,0-12.769,9.177,9.177,0,0,0-9.03-9.03,9.176,9.176,0,0,0-12.769,0,9.177,9.177,0,0,0-9.03,9.03,9.176,9.176,0,0,0,0,12.769,9.177,9.177,0,0,0,9.03,9.03,9.176,9.176,0,0,0,12.769,0,9.178,9.178,0,0,0,9.03-9.03ZM31.8,31.4a8.37,8.37,0,0,1-3.6-.817,9.188,9.188,0,0,0,2.872-11.99,9.155,9.155,0,0,0,1.113-3.973A8.395,8.395,0,0,1,31.8,31.4ZM14.6,23A8.4,8.4,0,1,1,23,31.4,8.409,8.409,0,0,1,14.6,23Zm22.966-7.161A9.152,9.152,0,0,0,32.19,13.81a9.155,9.155,0,0,0-2.029-5.376,8.383,8.383,0,0,1,7.405,7.405ZM31.4,14.2a8.37,8.37,0,0,1-.817,3.6,9.188,9.188,0,0,0-11.99-2.872,9.155,9.155,0,0,0-3.973-1.113A8.395,8.395,0,0,1,31.4,14.2ZM10.838,10.838a8.334,8.334,0,0,1,5-2.4A9.152,9.152,0,0,0,13.81,13.81a9.155,9.155,0,0,0-5.376,2.029A8.334,8.334,0,0,1,10.838,10.838ZM14.2,14.6a8.37,8.37,0,0,1,3.6.817,9.188,9.188,0,0,0-2.872,11.99,9.155,9.155,0,0,0-1.113,3.973A8.395,8.395,0,0,1,14.2,14.6ZM8.434,30.161A9.152,9.152,0,0,0,13.81,32.19a9.155,9.155,0,0,0,2.029,5.376,8.383,8.383,0,0,1-7.405-7.405ZM14.6,31.8a8.37,8.37,0,0,1,.817-3.6,9.188,9.188,0,0,0,11.99,2.872,9.155,9.155,0,0,0,3.973,1.113A8.395,8.395,0,0,1,14.6,31.8Zm15.561,5.766A9.152,9.152,0,0,0,32.19,32.19a9.155,9.155,0,0,0,5.376-2.029,8.383,8.383,0,0,1-7.405,7.405Z" transform="translate(1588 2488)" stroke="#fff" stroke-width="0.8"/>
  </g>
</svg>
