<svg xmlns="http://www.w3.org/2000/svg" width="25.215" height="40.5" viewBox="0 0 25.215 40.5">
  <g id="그룹_37642" data-name="그룹 37642" transform="translate(-1456.739 -2570.75)" fill="#fff">
    <g id="그룹_37064" data-name="그룹 37064" transform="translate(1444 2567)" fill="#fff">
      <path id="패스_4059" data-name="패스 4059" d="M36.981,7.158H31.768l.179.676c0-.007,0-.014,0-.021s0-.015,0-.023V4.211a.632.632,0,0,0-.632-.632H28.157V.632A.632.632,0,0,0,27.526,0H19.947a.632.632,0,0,0-.632.632V3.579H13.631a.632.632,0,0,0-.447,1.078l2.36,3.413,1.2,16.837a1.887,1.887,0,0,0-1.4,1.492L13.008,39.255a.632.632,0,0,0,.623.745H17.42a.632.632,0,0,0,.565-.349l1.088-2.177H29.03l1.085,2.177a.632.632,0,0,0,.568.349h3.789a.632.632,0,0,0,.621-.745L32.757,26.4a1.9,1.9,0,0,0-1.864-1.556H30.73l.208-2.919,6.321-2.16.039-.015a.632.632,0,0,0,.4-.59l-.09-11.368A.632.632,0,0,0,36.981,7.158Zm-16.4-5.895h6.316V3.579H20.578Zm-4.16,5.895-1.642-2.31,15.907-.006V7.158ZM26.768,20.253a.632.632,0,0,0-.884-.126l-2.147,1.611-2.147-1.611a.632.632,0,1,0-.758,1.011L23.1,22.842v2h-5.1L16.835,8.421h13.8L29.464,24.842h-5.1v-2l2.274-1.705A.632.632,0,0,0,26.768,20.253Zm4.125,5.853a.632.632,0,0,1,.621.519l2.2,12.113H31.074L29.989,36.56a.632.632,0,0,0-.568-.349H18.683a.632.632,0,0,0-.565.349L17.03,38.737H14.389l2.2-12.113a.632.632,0,0,1,.62-.519Zm.695-14.5H33.21v5.2l-1.952.651Zm4.852,7.118-5.4,1.807.122-1.705,2.881-.961a.632.632,0,0,0,.432-.6V10.975a.632.632,0,0,0-.632-.632H31.678V8.421H36.35Z" transform="translate(0.002 4)" stroke="#fff" stroke-width="0.5"/>
      <path id="패스_4060" data-name="패스 4060" d="M28.5,42A2.5,2.5,0,1,0,31,44.5,2.5,2.5,0,0,0,28.5,42Zm0,3.75a1.25,1.25,0,1,1,1.25-1.25A1.25,1.25,0,0,1,28.5,45.75Z" transform="translate(-5 -9.001)"/>
    </g>
  </g>
</svg>
