<svg xmlns="http://www.w3.org/2000/svg" width="48" height="48" viewBox="0 0 48 48">
  <g id="그룹_37628" data-name="그룹 37628" transform="translate(-160 -2789)">
    <rect id="사각형_31115" data-name="사각형 31115" width="48" height="48" transform="translate(160 2789)" fill="red" opacity="0"/>
    <path id="패스_4058" data-name="패스 4058" d="M2.8,12.9l5.826-1.219a.624.624,0,0,1,.738.483.744.744,0,0,1,.013.127V31.021h21.25V12.289a.625.625,0,0,1,.625-.625.6.6,0,0,1,.177.025L37.2,12.9l1.45-6.691L26.816,1.52a6.806,6.806,0,0,1-1.963,3.928,6.875,6.875,0,0,1-9.707,0A6.809,6.809,0,0,1,13.185,1.52L1.348,6.207,2.8,12.9ZM25.575,1.37A36.143,36.143,0,0,1,20,1.794a37.207,37.207,0,0,1-5.575-.427,5.556,5.556,0,0,0,1.6,3.2,5.638,5.638,0,0,0,7.949,0,5.558,5.558,0,0,0,1.6-3.2ZM13.892.016A36.269,36.269,0,0,0,20,.55,35.028,35.028,0,0,0,26.129.013h0l.013,0a.63.63,0,0,1,.337.035l13.125,5.2a.626.626,0,0,1,.381.713l-1.693,7.814a.625.625,0,0,1-.737.479l-5.68-1.189v18.59a.625.625,0,0,1-.626.625H8.75a.625.625,0,0,1-.625-.625V13.056L2.45,14.246a.625.625,0,0,1-.742-.479L.019,5.973A.625.625,0,0,1,.4,5.24L13.494.055A.614.614,0,0,1,13.75,0a.633.633,0,0,1,.142.016ZM27.5,11.75a.625.625,0,1,1,0,1.25h-5a.625.625,0,1,1,0-1.25Z" transform="translate(163.998 2797)" stroke="#000" stroke-width="0.5"/>
  </g>
</svg>
