<svg xmlns="http://www.w3.org/2000/svg" width="48" height="48" viewBox="0 0 48 48">
  <g id="그룹_37611" data-name="그룹 37611" transform="translate(-627 -2577)">
    <rect id="사각형_31114" data-name="사각형 31114" width="48" height="48" transform="translate(627 2577)" fill="red" opacity="0"/>
    <g id="그룹_37658" data-name="그룹 37658" fill="#fff">
      <path id="패스_4062" data-name="패스 4062" d="M36.8,17.493H26.633a73.388,73.388,0,0,0-2.122-7.045.668.668,0,0,0-.63-.448h-10.3a.667.667,0,0,0-.63.448,73.389,73.389,0,0,0-2.122,7.045H.667A.672.672,0,0,0,0,18.166V39.31a.667.667,0,0,0,.667.667L36.8,40a.667.667,0,0,0,.668-.667V18.166A.672.672,0,0,0,36.8,17.493Zm-22.351-5.62h8.571c.92,2.623,3.207,10.078,3.207,14.989a7.493,7.493,0,1,1-14.986,0C11.239,21.951,13.527,14.5,14.447,11.873ZM1.873,19.366h8.507c-.28,1.124-.527,2.623-.707,3.746h-7.8Zm0,5.62h7.58c-.056.749-.087,1.276-.087,1.873a9.218,9.218,0,0,0,1.85,5.62H1.873ZM35.591,38.126,1.873,38.105V34.352H13.084a9.745,9.745,0,0,0,5.648,1.873,9.745,9.745,0,0,0,5.648-1.873H35.591Zm0-5.648H26.249a9.218,9.218,0,0,0,1.85-5.62c0-.6-.031-1.124-.087-1.873h7.58Zm0-9.366h-7.8c-.18-1.124-.427-2.623-.707-3.746h8.507Z" transform="translate(632 2576)"/>
      <path id="패스_4063" data-name="패스 4063" d="M40.62,40.015a5.62,5.62,0,1,0,5.62,5.62A5.62,5.62,0,0,0,40.62,40.015Zm0,9.366a3.746,3.746,0,1,1,3.746-3.746A3.751,3.751,0,0,1,40.62,49.381Z" transform="translate(610.113 2557.23)"/>
      <path id="패스_4064" data-name="패스 4064" d="M47.493,20.375A.375.375,0,0,0,47.118,20H40.375a.375.375,0,0,0-.375.375v5.62a.375.375,0,0,0,.375.375h6.744a.375.375,0,0,0,.375-.375ZM45.62,24.5H41.873V21.873H45.62Z" transform="translate(606.986 2569.746)"/>
    </g>
  </g>
</svg>
