<svg xmlns="http://www.w3.org/2000/svg" width="48" height="48" viewBox="0 0 48 48">
  <g id="그룹_37632" data-name="그룹 37632" transform="translate(-413 -2784)">
    <rect id="사각형_31121" data-name="사각형 31121" width="48" height="48" transform="translate(413 2784)" fill="red" opacity="0"/>
    <path id="패스_4079" data-name="패스 4079" d="M16.387,36l-1.238-.85L20.005,28.1a2.414,2.414,0,0,1,1.561-1.021l8.782-1.6a3.743,3.743,0,0,0,2.9-2.543l.966-3a5.168,5.168,0,0,0,.379-1.93.754.754,0,0,0-.514-.714l-5.049-1.681a2.42,2.42,0,0,1-1.238-.945L26.215,12.3a.9.9,0,0,0-.464-.353l-4.687-1.685a2.259,2.259,0,0,1-1.534-2.145V2.273a.8.8,0,0,0-1.341-.5L1.1,21.025l-1.124-1L17.061.775a2.268,2.268,0,0,1,3.97,1.5V8.118a.762.762,0,0,0,.524.724l4.685,1.685a2.4,2.4,0,0,1,1.223.939l1.576,2.363a.908.908,0,0,0,.464.355l5.049,1.681A2.252,2.252,0,0,1,36.092,18a6.525,6.525,0,0,1-.469,2.44l-.948,2.95a5.246,5.246,0,0,1-4.06,3.563l-8.782,1.6a.9.9,0,0,0-.586.385Z" transform="translate(419.02 2789.992)" stroke="#000" stroke-width="0.5"/>
    <path id="패스_10880" data-name="패스 10880" d="M1.5,0A1.5,1.5,0,1,1,0,1.5,1.5,1.5,0,0,1,1.5,0Z" transform="translate(440.061 2805.012)" stroke="#000" stroke-width="0.5"/>
  </g>
</svg>
