<svg id="ic_my_w" xmlns="http://www.w3.org/2000/svg" xmlns:xlink="http://www.w3.org/1999/xlink" width="40" height="40" viewBox="0 0 40 40">
  <defs>
    <clipPath id="clip-path">
      <rect id="사각형_26914" data-name="사각형 26914" width="22" height="11" transform="translate(-0.6 -0.7)" fill="#fff" stroke="#707070" stroke-width="1"/>
    </clipPath>
  </defs>
  <rect id="사각형_29902" data-name="사각형 29902" width="40" height="40" fill="rgba(255,133,133,0)" opacity="0.36"/>
  <rect id="사각형_29903" data-name="사각형 29903" width="30" height="30" transform="translate(3 3)" fill="none" opacity="0.36"/>
  <g id="그룹_36090" data-name="그룹 36090" transform="translate(-1 -1)">
    <rect id="사각형_26360" data-name="사각형 26360" width="24" height="24" transform="translate(9 9)" fill="none" opacity="0.36"/>
    <g id="그룹_22954" data-name="그룹 22954" transform="translate(10.6 11.399)">
      <g id="타원_38" data-name="타원 38" transform="translate(5.4 -1.398)" fill="rgba(255,255,255,0)" stroke="#fff" stroke-width="1.5">
        <circle cx="5" cy="5" r="5" stroke="none"/>
        <circle cx="5" cy="5" r="4.25" fill="none"/>
      </g>
      <g id="마스크_그룹_158" data-name="마스크 그룹 158" transform="translate(0 9.602)" clip-path="url(#clip-path)">
        <g id="패스_4156" data-name="패스 4156" transform="translate(0 0)" fill="rgba(255,255,255,0)">
          <path d="M 10.40000057220459 20.05000114440918 C 5.078970432281494 20.05000114440918 0.7500005960464478 15.72103023529053 0.7500005960464478 10.40000057220459 C 0.7500005960464478 5.078970432281494 5.078970432281494 0.7500005960464478 10.40000057220459 0.7500005960464478 C 15.72103023529053 0.7500005960464478 20.05000114440918 5.078970432281494 20.05000114440918 10.40000057220459 C 20.05000114440918 15.72103023529053 15.72103023529053 20.05000114440918 10.40000057220459 20.05000114440918 Z" stroke="none"/>
          <path d="M 10.40000057220459 1.5 C 5.492520332336426 1.5 1.5 5.492520332336426 1.5 10.40000057220459 C 1.5 15.30747985839844 5.492520332336426 19.30000114440918 10.40000057220459 19.30000114440918 C 15.30747985839844 19.30000114440918 19.30000114440918 15.30747985839844 19.30000114440918 10.40000057220459 C 19.30000114440918 5.492520332336426 15.30747985839844 1.5 10.40000057220459 1.5 M 10.40000057220459 0 C 16.14376068115234 0 20.80000114440918 4.656240463256836 20.80000114440918 10.40000057220459 C 20.80000114440918 16.14376068115234 16.14376068115234 20.80000114440918 10.40000057220459 20.80000114440918 C 4.656240463256836 20.80000114440918 0 16.14376068115234 0 10.40000057220459 C 0 4.656240463256836 4.656240463256836 0 10.40000057220459 0 Z" stroke="none" fill="#fff"/>
        </g>
      </g>
    </g>
  </g>
</svg>
