<svg xmlns="http://www.w3.org/2000/svg" width="48" height="48" viewBox="0 0 48 48">
  <g id="그룹_37626" data-name="그룹 37626" transform="translate(-1752 -2567)" fill="#802bc5">
    <rect id="사각형_31116" data-name="사각형 31116" width="48" height="48" transform="translate(1752 2567)" fill="red" opacity="0"/>
    <path id="패스_4045" data-name="패스 4045" d="M20.386,958.367a.882.882,0,0,0-.814.877v1.726H16.357a.959.959,0,0,0-.1,0,.884.884,0,0,0-.864.91.9.9,0,0,0,.964.816h3.214v1.726H15.914q-.043,0-.086,0a.884.884,0,0,0-.829.864v13.38c0,.477,1.829.477,1.829,0V966.15H34.2v23.2a10.015,10.015,0,0,1-6.643.3c-2.38-.542-4.836-1.484-7.529-1.484a8.081,8.081,0,0,0-3.2.674v-6.717c0-.477-1.829-.477-1.829,0V994.2a.856.856,0,0,0,.456.734.961.961,0,0,0,.9.008,8.413,8.413,0,0,1,3.671-1.173c2.29,0,4.579.961,7.1,1.659a11.251,11.251,0,0,0,8.229-.4,24.207,24.207,0,0,0,6.614,1.335,7.956,7.956,0,0,0,4.657-1.47A.849.849,0,0,0,47,994.2V965.284a.89.89,0,0,0-.914-.863H42.428v-1.726h3.214a.865.865,0,1,0,0-1.726H42.428v-1.727a.842.842,0,0,0-.3-.654.95.95,0,0,0-.717-.221.882.882,0,0,0-.814.877v1.726H31.914v-1.726a.841.841,0,0,0-.3-.655.949.949,0,0,0-.717-.221.882.882,0,0,0-.814.877v1.726H21.4v-1.726a.841.841,0,0,0-.3-.655A.949.949,0,0,0,20.386,958.367ZM21.4,962.7h8.686v1.726H21.4Zm10.514,0H40.6v1.726H31.914Zm4.114,3.453h9.143v23.2a8.177,8.177,0,0,1-3.214.971,21.277,21.277,0,0,1-5.929-1.093V966.15Zm-16,23.738c2.215,0,4.545.861,7.1,1.443a12.6,12.6,0,0,0,7.071-.121v2.4a9.206,9.206,0,0,1-6.557.162c-2.349-.65-4.805-1.726-7.614-1.726a8.182,8.182,0,0,0-3.2.8v-2.05a6.2,6.2,0,0,1,3.2-.9Zm16,1.146a20.891,20.891,0,0,0,5.957,1.012,8.3,8.3,0,0,0,3.186-.769v2.414a5.835,5.835,0,0,1-3.2.944,23.215,23.215,0,0,1-5.943-1.227v-2.374Z" transform="translate(1745 1613.639)"/>
  </g>
</svg>
