<svg xmlns="http://www.w3.org/2000/svg" width="48" height="48" viewBox="0 0 48 48">
  <g id="그룹_37619" data-name="그룹 37619" transform="translate(-1266 -2419)" fill="#802bc5">
    <rect id="사각형_31120" data-name="사각형 31120" width="48" height="48" transform="translate(1266 2419)" fill="red" opacity="0"/>
    <path id="패스_4069" data-name="패스 4069" d="M43.592,34.151a.818.818,0,0,0-1.157-.038,10.352,10.352,0,0,1-1.919,1.378,48.333,48.333,0,0,0-3.9-18.247l-.527-1.231a2.792,2.792,0,0,0-2.582-1.7H22.538V12.25c0-2.371-1.327-6.464-3.724-7.663a.818.818,0,0,0-1.1.367L16.2,7.982,7.93,12.116a2.731,2.731,0,0,0-1.455,2.975L7.542,20.43A2.088,2.088,0,0,0,10.252,22l1.887-.628A43.072,43.072,0,0,0,9.447,36.282a12.225,12.225,0,0,1-3.6-2.237.818.818,0,1,0-1.134,1.178C8.032,38.428,15.665,40.5,24.174,40.5c8.4,0,16.01-2.039,19.38-5.192A.818.818,0,0,0,43.592,34.151ZM14.063,20.934h0a1.109,1.109,0,0,0-1.384-1.463l-2.945.982a.461.461,0,0,1-.371-.038.452.452,0,0,1-.218-.3L8.077,14.773a1.093,1.093,0,0,1,.581-1.19l8.509-4.255a.818.818,0,0,0,.367-.367L18.74,6.55a9.231,9.231,0,0,1,2.162,5.7v2.887a.818.818,0,0,0,.818.818H33.5a1.16,1.16,0,0,1,1.065.7l.527,1.231A46.751,46.751,0,0,1,38.9,35.82l-3.615,1.2L32.3,29.559a.818.818,0,0,0-1.018-.473,23.012,23.012,0,0,1-11.108.363l-1.527-.381a.818.818,0,0,0-.957.491L14.7,37.024l-3.621-1.2a41.43,41.43,0,0,1,2.98-14.888Zm1.946,17.224,2.929-7.328.835.208a25.413,25.413,0,0,0,11.283-.175l2.808,7.018a45.918,45.918,0,0,1-9.689.982,46.814,46.814,0,0,1-8.165-.705Z" transform="translate(1265.559 2420.5)"/>
  </g>
</svg>
