<svg xmlns="http://www.w3.org/2000/svg" width="48.445" height="48" viewBox="0 0 48.445 48">
  <g id="그룹_37639" data-name="그룹 37639" transform="translate(-1002 -2567)" fill="#d9d9d9">
    <g id="그룹_37613" data-name="그룹 37613" transform="translate(9 9)">
      <rect id="사각형_31112" data-name="사각형 31112" width="48" height="48" transform="translate(993 2558)" fill="red" opacity="0"/>
      <path id="패스_4061" data-name="패스 4061" d="M40.7,77.4l2.33,6.99c.437,1.165-1.456,1.748-1.893.583l-2.33-6.99a7.507,7.507,0,0,0-4.078,6.7A7.38,7.38,0,1,0,47.4,79.437,7.532,7.532,0,0,0,40.7,77.4Zm-9.32-10.631a.98.98,0,1,1,1.456-1.311c.146.291.437.291.874.291h2.33a1.1,1.1,0,0,1,1.019.728c1.019,3.058,2.039,6.117,3.058,9.029a9.532,9.532,0,0,1,8.592,2.621C54.534,83.806,50.456,94,42.155,94a9.386,9.386,0,0,1-9.32-9.32,9.117,9.117,0,0,1,5.388-8.447L37.5,73.9,26.282,85.262a1.112,1.112,0,0,1-.728.291H22.5a9.274,9.274,0,1,1-5.825-9.612l3.2-6.117-1.165-3.932H16.816a.947.947,0,1,1,0-1.893h5.243a.947.947,0,1,1,0,1.893H20.748l.874,3.058H35.748l-.437-1.311h-1.6A3.307,3.307,0,0,1,31.379,66.767Zm-10.631,5.68-2.33,4.369A9.452,9.452,0,0,1,22.5,83.66h1.748Zm-3.2,6.117-2.621,5.1H20.6A7.78,7.78,0,0,0,17.544,78.563Zm3.058,6.99H13.32c-.728,0-1.311-.728-.874-1.311l3.35-6.553a7.424,7.424,0,0,0-9.9,6.99,7.387,7.387,0,0,0,14.709.874ZM36.476,70.845H22.2L25.99,82.786,36.767,71.864Z" transform="translate(990 2503)"/>
    </g>
  </g>
</svg>
