<svg xmlns="http://www.w3.org/2000/svg" width="48" height="48" viewBox="0 0 48 48">
  <g id="그룹_37610" data-name="그룹 37610" transform="translate(-792 -2594)">
    <rect id="사각형_31111" data-name="사각형 31111" width="48" height="48" transform="translate(792 2594)" fill="red" opacity="0"/>
    <g id="그룹_37657" data-name="그룹 37657" fill="#d9d9d9">
      <path id="패스_4048" data-name="패스 4048" d="M36.249,38h-27a.709.709,0,0,1-.75-.75V2.75A.709.709,0,0,1,9.25,2h27a.709.709,0,0,1,.75.75v34.5A.709.709,0,0,1,36.249,38ZM10,36.5H35.5V3.5H10Z" transform="translate(794.752 2598)" stroke="#d9d9d9" stroke-width="0.3"/>
      <path id="패스_4049" data-name="패스 4049" d="M18.25,38a.709.709,0,0,1-.75-.75V2.75a.75.75,0,0,1,1.5,0v34.5A.709.709,0,0,1,18.25,38Z" transform="translate(792.5 2598)" stroke="#d9d9d9" stroke-width="0.3"/>
      <path id="패스_4050" data-name="패스 4050" d="M10.753,11.5H6.25a.75.75,0,1,1,0-1.5h4.5a.75.75,0,1,1,0,1.5Z" transform="translate(795.5 2596)" stroke="#d9d9d9" stroke-width="0.3"/>
      <path id="패스_4051" data-name="패스 4051" d="M10.753,21.5H6.25a.75.75,0,1,1,0-1.5h4.5a.75.75,0,1,1,0,1.5Z" transform="translate(795.5 2593.5)" stroke="#d9d9d9" stroke-width="0.3"/>
      <path id="패스_4052" data-name="패스 4052" d="M10.753,31.5H6.25a.75.75,0,1,1,0-1.5h4.5a.75.75,0,1,1,0,1.5Z" transform="translate(795.5 2591)" stroke="#d9d9d9" stroke-width="0.3"/>
      <path id="패스_4053" data-name="패스 4053" d="M10.753,41.5H6.25a.75.75,0,0,1,0-1.5h4.5a.75.75,0,1,1,0,1.5Z" transform="translate(795.5 2588.5)" stroke="#d9d9d9" stroke-width="0.3"/>
      <path id="패스_4054" data-name="패스 4054" d="M29.7,29.505a1.391,1.391,0,0,1-.525-.15C28.352,28.68,24.3,25,24.3,22.527A3.523,3.523,0,0,1,27.827,19a3.387,3.387,0,0,1,1.876.525A3.223,3.223,0,0,1,31.579,19a3.523,3.523,0,0,1,3.527,3.527c0,2.476-4.052,6.078-4.878,6.829A1.391,1.391,0,0,1,29.7,29.505Zm-1.876-9A2.018,2.018,0,0,0,25.8,22.527c0,1.276,2.176,3.677,3.9,5.253,1.651-1.5,3.9-3.977,3.9-5.253A2.018,2.018,0,0,0,31.579,20.5a1.808,1.808,0,0,0-1.351.525.787.787,0,0,1-.976,0A2.559,2.559,0,0,0,27.827,20.5Z" transform="translate(790.797 2593.748)" stroke="#d9d9d9" stroke-width="0.3"/>
    </g>
  </g>
</svg>
