<svg xmlns="http://www.w3.org/2000/svg" xmlns:xlink="http://www.w3.org/1999/xlink" width="22" height="22" viewBox="0 0 22 22">
  <defs>
    <clipPath id="clip-path">
      <rect id="사각형_30315" data-name="사각형 30315" width="21.757" height="3.626" transform="translate(0 0)" fill="none" stroke="#000" stroke-width="1"/>
    </clipPath>
  </defs>
  <g id="그룹_37490" data-name="그룹 37490" transform="translate(16773 7174)">
    <g id="그룹_36537" data-name="그룹 36537" transform="translate(-2693 1705)">
      <rect id="사각형_32262" data-name="사각형 32262" width="22" height="22" transform="translate(-14080 -8879)" fill="rgba(255,255,255,0)"/>
      <g id="그룹_36535" data-name="그룹 36535" transform="translate(-16517 -9520)">
        <path id="빼기_34" data-name="빼기 34" d="M4.409,5.273H0V0H6.188V4.351a2.182,2.182,0,0,0-1.778.922Z" transform="translate(2452.57 644.001)" fill="#8a5fef"/>
        <g id="마스크_그룹_412" data-name="마스크 그룹 412" transform="translate(2437 644)" clip-path="url(#clip-path)">
          <g id="그룹_31245" data-name="그룹 31245" transform="translate(-0.001 0)">
            <g id="빼기_5" data-name="빼기 5" fill="none">
              <path d="M21.76,13.055H0V0H21.76V4.478a2.149,2.149,0,0,0-.725-.124,2.174,2.174,0,1,0,.725,4.225v4.476Z" stroke="none"/>
              <path d="M 20.75976371765137 12.05468368530273 L 20.75976371765137 9.690311431884766 C 19.1370849609375 9.550275802612305 17.85937309265137 8.184721946716309 17.85937309265137 6.526363849639893 C 17.85937309265137 4.86953067779541 19.1370849609375 3.505240678787231 20.75976371765137 3.365334987640381 L 20.75976371765137 1.000003695487976 L 1.000002861022949 1.000003695487976 L 1.000002861022949 12.05468368530273 L 20.75976371765137 12.05468368530273 M 21.75976371765137 13.05468368530273 L 2.812500042637112e-06 13.05468368530273 L 2.812500042637112e-06 3.749999905267032e-06 L 21.75976371765137 3.749999905267032e-06 L 21.75976371765137 4.477543830871582 C 21.5263729095459 4.394533634185791 21.28418350219727 4.353513717651367 21.03515243530273 4.353513717651367 C 19.8359432220459 4.353513717651367 18.85937309265137 5.328123569488525 18.85937309265137 6.526363849639893 C 18.85937309265137 7.725583553314209 19.8359432220459 8.702143669128418 21.03515243530273 8.702143669128418 C 21.2802734375 8.702143669128418 21.52441215515137 8.661133766174316 21.75976371765137 8.578124046325684 L 21.75976371765137 13.05468368530273 Z" stroke="none" fill="#000"/>
            </g>
            <line id="선_360" data-name="선 360" y2="12.329" transform="translate(15.594 0.363)" fill="none" stroke="#000" stroke-linecap="square" stroke-width="1" stroke-dasharray="2 3"/>
          </g>
        </g>
        <path id="패스_10877" data-name="패스 10877" d="M0,0H16.089V13.054H0Z" transform="translate(2437 646.901)" fill="#fff"/>
        <path id="빼기_33" data-name="빼기 33" d="M6.186,13.054H0V0H6.186V4.352a2.176,2.176,0,0,0,0,4.352v4.351Z" transform="translate(2452.57 646.902)" fill="#8a5fef"/>
        <line id="선_360-2" data-name="선 360" y2="12.329" transform="translate(2452.593 647.264)" fill="none" stroke="#000" stroke-linecap="square" stroke-width="1" stroke-dasharray="2 3"/>
        <text id="C" transform="translate(2441.352 656.626)" fill="#8a5fef" font-size="9" font-family="SpoqaHanSansNeo-Bold, Spoqa Han Sans Neo" font-weight="700" letter-spacing="-0.03em"><tspan x="0" y="0">C</tspan></text>
        <g id="빼기_32" data-name="빼기 32" transform="translate(2437.001 646.901)" fill="none">
          <path d="M21.757,13.053H0V0H21.757V4.353a2.176,2.176,0,0,0,0,4.352v4.347Z" stroke="none"/>
          <path d="M 20.75683784484863 12.05273151397705 L 20.75683784484863 9.54329776763916 C 19.49408340454102 9.123325347900391 18.58105850219727 7.930489063262939 18.58105850219727 6.528321266174316 C 18.58105850219727 5.126831531524658 19.49409866333008 3.9342200756073 20.75683784484863 3.514057397842407 L 20.75683784484863 1.000491380691528 L 0.9999979734420776 1.000491380691528 L 0.9999979734420776 12.05273151397705 L 20.75683784484863 12.05273151397705 M 21.75683784484863 13.05273151397705 L -2.031250005529728e-06 13.05273151397705 L -2.031250005529728e-06 0.0004913281300105155 L 21.75683784484863 0.0004913281300105155 L 21.75683784484863 4.352541446685791 C 20.55566787719727 4.353031158447266 19.58105850219727 5.3291015625 19.58105850219727 6.528321266174316 C 19.58105850219727 7.728031158447266 20.55663871765137 8.704591751098633 21.75683784484863 8.704591751098633 L 21.75683784484863 13.05273151397705 Z" stroke="none" fill="#000"/>
        </g>
      </g>
    </g>
  </g>
</svg>
