<svg xmlns="http://www.w3.org/2000/svg" width="22" height="22" viewBox="0 0 22 22">
  <g id="그룹_37491" data-name="그룹 37491" transform="translate(16547 7174)">
    <g id="그룹_36537" data-name="그룹 36537" transform="translate(-2467 1705)">
      <rect id="사각형_32262" data-name="사각형 32262" width="22" height="22" transform="translate(-14080 -8879)" fill="rgba(255,255,255,0)"/>
      <g id="그룹_36542" data-name="그룹 36542" transform="translate(1 1)">
        <g id="패스_10985" data-name="패스 10985" transform="translate(-14080 -8878)" fill="#fff">
          <path d="M 10.00002384185791 17.01779365539551 C 7.481485843658447 14.86954116821289 2.170182943344116 10.07846069335938 1.337402820587158 8.108004570007324 C 0.5051728487014771 6.138194561004639 0.5553528666496277 4.357874870300293 1.482542872428894 2.959604740142822 C 2.386302947998047 1.596674680709839 4.048062801361084 0.7500047087669373 5.819333076477051 0.7500047087669373 C 7.275103092193604 0.7500047087669373 8.555083274841309 1.32475471496582 9.423482894897461 2.368384838104248 L 10.00000286102295 3.061224699020386 L 10.57652282714844 2.368384838104248 C 11.44492244720459 1.32475471496582 12.72490310668945 0.7500047087669373 14.18067264556885 0.7500047087669373 C 15.95213317871094 0.7500047087669373 17.61396217346191 1.596614718437195 18.51765251159668 2.959444761276245 C 19.44479370117188 4.357644557952881 19.49491310119629 6.138014793395996 18.66257286071777 8.108084678649902 C 17.82949256896973 10.07923316955566 12.51843643188477 14.86982917785645 10.00002384185791 17.01779365539551 Z" stroke="none"/>
          <path d="M 9.997393608093262 16.02841186523438 C 10.79136657714844 15.34059524536133 11.98466396331787 14.28797435760498 13.21678256988525 13.13215446472168 C 16.96769332885742 9.613504409790039 17.79163360595703 8.242264747619629 17.97170257568359 7.81620454788208 C 18.7015323638916 6.08873462677002 18.6741828918457 4.552624702453613 17.89259338378906 3.373924732208252 C 17.13774299621582 2.235564708709717 15.68073272705078 1.500004768371582 14.18067264556885 1.500004768371582 C 12.9516429901123 1.500004768371582 11.87640285491943 1.978764772415161 11.15303325653076 2.84810471534729 L 10.00000286102295 4.233784675598145 L 8.846972465515137 2.84810471534729 C 8.123602867126465 1.978764772415161 7.048362731933594 1.500004768371582 5.819333076477051 1.500004768371582 C 4.31945276260376 1.500004768371582 2.862512826919556 2.23562479019165 2.10761284828186 3.374084711074829 C 1.325962901115417 4.552854537963867 1.298542857170105 6.08891487121582 2.02823281288147 7.81603479385376 C 2.662370920181274 9.316463470458984 6.782670974731445 13.25331878662109 9.997393608093262 16.02841186523438 M 10.00000286102295 17.9999942779541 C 10.00000286102295 17.9999942779541 1.803072810173035 11.1364049911499 0.6465628743171692 8.399974822998047 C -2.451687097549438 1.066664457321167 6.397842407226562 -2.440345048904419 10.00000286102295 1.888664722442627 C 13.60215950012207 -2.440344095230103 22.45169258117676 1.066663503646851 19.35344314575195 8.399974822998047 C 18.19692230224609 11.1364049911499 10.00000286102295 17.9999942779541 10.00000286102295 17.9999942779541 Z" stroke="none" fill="#000"/>
        </g>
        <circle id="타원_1894" data-name="타원 1894" cx="3" cy="3" r="3" transform="translate(-14069 -8875.422)" fill="#8a5fef"/>
      </g>
    </g>
  </g>
</svg>
