<svg xmlns="http://www.w3.org/2000/svg" width="22" height="22" viewBox="0 0 22 22">
  <g id="그룹_37489" data-name="그룹 37489" transform="translate(16969 7174)">
    <g id="그룹_36536" data-name="그룹 36536" transform="translate(-2840 1705)">
      <rect id="사각형_32261" data-name="사각형 32261" width="22" height="22" transform="translate(-14129 -8879)" fill="rgba(255,255,255,0)"/>
      <g id="그룹_36534" data-name="그룹 36534" transform="translate(-14132 -8880)">
        <g id="그룹_34920" data-name="그룹 34920" transform="translate(4 3)">
          <g id="사각형_32258" data-name="사각형 32258" fill="#8a5fef" stroke="#000" stroke-width="1">
            <rect width="13.103" height="17.241" stroke="none"/>
            <rect x="0.5" y="0.5" width="12.103" height="16.241" fill="none"/>
          </g>
          <line id="선_364" data-name="선 364" x2="12.414" transform="translate(0.345 12.759)" fill="none" stroke="#000" stroke-width="1"/>
          <line id="선_365" data-name="선 365" x2="12.414" transform="translate(0.345 8.621)" fill="none" stroke="#000" stroke-width="1"/>
          <line id="선_366" data-name="선 366" x2="12.414" transform="translate(0.345 4.483)" fill="none" stroke="#000" stroke-width="1"/>
        </g>
        <g id="타원_1343" data-name="타원 1343" transform="translate(10.207 6.448)" fill="#fbfbfb" stroke="#000" stroke-miterlimit="10" stroke-width="1">
          <circle cx="6.897" cy="6.897" r="6.897" stroke="none"/>
          <circle cx="6.897" cy="6.897" r="6.397" fill="none"/>
        </g>
        <g id="그룹_24240" data-name="그룹 24240" transform="translate(15.127 9.579)">
          <path id="패스_7986" data-name="패스 7986" d="M215.816,519.4h2.473c1.669,0,2.951.58,2.951,2.361,0,1.72-1.292,2.493-2.911,2.493h-1.007v2.677h-1.506Zm2.412,3.664c1.038,0,1.536-.438,1.536-1.3s-.549-1.171-1.587-1.171h-.855v2.474Z" transform="translate(-215.816 -519.398)" fill="#8a5fef"/>
        </g>
      </g>
    </g>
  </g>
</svg>
