<svg xmlns="http://www.w3.org/2000/svg" width="127" height="25.273" viewBox="0 0 127 25.273">
  <g id="그룹_37489" data-name="그룹 37489" transform="translate(19989 244)">
    <path id="합치기_244" data-name="합치기 244" d="M111.942,22H11A11,11,0,0,1,11,0H116a11,11,0,0,1,3.6,21.4l-7.654,3.875Z" transform="translate(-19989 -244)" fill="#ff7280"/>
    <g id="그룹_37488" data-name="그룹 37488" transform="translate(-12.635 32.211)">
      <path id="패스_11185" data-name="패스 11185" d="M9.792-8.64H6v-1.3H5v1.3H1.14v.792H9.792Zm-1.824,3.2c0,.66-.888,1.044-2.46,1.044S3.024-4.776,3.024-5.436,3.936-6.48,5.508-6.48,7.968-6.1,7.968-5.436ZM2-5.436c0,1.152,1.308,1.788,3.5,1.788,2.172,0,3.48-.636,3.48-1.788s-1.308-1.8-3.48-1.8C3.312-7.236,2-6.588,2-5.436Zm8.388,2.544H.636v.8H5V.9H6V-2.088h4.392Zm1.32-5.82v.792h4.044c-.2,2.556-1.644,4.62-4.536,6l.528.8c3.576-1.752,5-4.488,5-7.6Zm7.212-1.164V.888h.984V-9.876Zm8.844,5.268a3.626,3.626,0,0,1-2.616-3.3v-.42h2.376V-9.12H21.756v.792h2.412V-7.9a3.809,3.809,0,0,1-2.7,3.492l.516.78A4.524,4.524,0,0,0,24.672-6.24a4.349,4.349,0,0,0,2.592,2.4ZM22.86-2.016h6.024V.9h.984V-2.808H22.86Zm8.6-5.028h-1.6v-2.82h-.984v6.48h.984V-6.228h1.6ZM39.828-3.5h1v-6.36h-1v2.28h-2.34v.8h2.34Zm-1.56-1.272A3.691,3.691,0,0,1,35.652-8.2V-9.264h-.984v1.1a3.922,3.922,0,0,1-2.724,3.672l.516.8A4.552,4.552,0,0,0,35.184-6.42,4.406,4.406,0,0,0,37.74-4.008ZM37.272.1c-1.62,0-2.6-.468-2.6-1.248s.984-1.26,2.6-1.26,2.6.468,2.6,1.26S38.892.1,37.272.1Zm0-3.276c-2.208,0-3.588.732-3.588,2.028S35.064.876,37.272.876,40.86.132,40.86-1.152,39.48-3.18,37.272-3.18ZM48.3-8.94h-.972v1.932a5.655,5.655,0,0,1-2.892,4.86l.6.8A5.981,5.981,0,0,0,47.82-4.956a5.845,5.845,0,0,0,2.772,3.408l.588-.792A5.354,5.354,0,0,1,48.3-7.008Zm4.008-.936V.912h.984V-9.876Zm8.22,1.824H63.2v3.528H60.528ZM62.364-1.26V-3.732h3.468v-.792H64.188V-8.052h1.668v-.792h-7.98v.792h1.668v3.528H57.9v.792h3.468V-1.26H57.012v.8h9.756v-.8Zm13.92-8.6H75.3V-2h.984ZM68.664-6.48A1.76,1.76,0,0,1,70.5-8.268,1.766,1.766,0,0,1,72.36-6.48,1.771,1.771,0,0,1,70.5-4.668,1.765,1.765,0,0,1,68.664-6.48Zm4.656,0A2.649,2.649,0,0,0,70.5-9.12a2.635,2.635,0,0,0-2.8,2.64,2.647,2.647,0,0,0,2.8,2.664A2.66,2.66,0,0,0,73.32-6.48ZM70.344-.156V-2.808H69.36V.648h7.248v-.8ZM86.532-4.068h-6.4v-1.7h6.048v-.78H80.136v-1.6h6.288V-8.94H79.14v5.664h7.392ZM77.88-1.308v.8h9.768v-.8ZM94.26-7.956h2.532v-.816H90.78v.816h2.5v1.368a5.505,5.505,0,0,1-2.856,4.62L91-1.176a6.036,6.036,0,0,0,2.772-3.552,5.686,5.686,0,0,0,2.82,3.288l.552-.792a5.012,5.012,0,0,1-2.88-4.356Zm3.984-1.908V.888h.984V-9.864Zm10.14,9.816h-5.292V-1.524h5.292Zm0-2.244h-5.292V-3.708h-.972V.744h7.236V-3.708h-.972Zm.7-3.192a13.439,13.439,0,0,0,.288-3.12v-.78H102.1v.8h6.3a12.738,12.738,0,0,1-.3,3.1h-7.248v.8h9.78v-.8Z" transform="translate(-19968.002 -260.275)" fill="#fff"/>
    </g>
  </g>
</svg>
