<svg id="ic_heart" xmlns="http://www.w3.org/2000/svg" width="36" height="36" viewBox="0 0 36 36">
  <rect id="사각형_26362" data-name="사각형 26362" width="36" height="36" fill="rgba(255,133,133,0)" opacity="0.36"/>
  <g id="패스_10412" data-name="패스 10412" transform="translate(6.75 9)" fill="none">
    <path d="M11.25,20.25S2.028,12.528.727,9.45C-2.758,1.2,7.2-2.745,11.25,2.125,15.3-2.745,25.258,1.2,21.773,9.45,20.472,12.528,11.25,20.25,11.25,20.25Z" stroke="none"/>
    <path d="M 11.25000190734863 18.27729034423828 C 12.1443338394165 17.50441360473633 13.55324554443359 16.26529312133789 15.00680160522461 14.90137386322021 C 19.2447509765625 10.92478370666504 20.18389129638672 9.35594367980957 20.39088249206543 8.866193771362305 C 21.23757171630859 6.862143993377686 21.20111274719238 5.072954177856445 20.28543281555176 3.692034006118774 C 19.38886260986328 2.339934110641479 17.72887229919434 1.499994039535522 15.95326232910156 1.499994039535522 C 14.5139217376709 1.499994039535522 13.25309181213379 2.062604188919067 12.40303230285645 3.084184169769287 L 11.25000190734863 4.469873905181885 L 10.09697151184082 3.084184169769287 C 9.246912002563477 2.062604188919067 7.986082077026367 1.499994039535522 6.546741962432861 1.499994039535522 C 4.771341800689697 1.499994039535522 3.111431837081909 2.340003967285156 2.214792013168335 3.692214012145996 C 1.299051880836487 5.073214054107666 1.262511849403381 6.862344264984131 2.109051942825317 8.866024017333984 C 2.31611180305481 9.35594367980957 3.255251884460449 10.92478370666504 7.493201732635498 14.90137386322021 C 8.946758270263672 16.26529312133789 10.35566997528076 17.50441360473633 11.25000190734863 18.27729034423828 M 11.25000190734863 20.25000381469727 C 11.25000190734863 20.25000381469727 2.028461933135986 12.5284538269043 0.7273818850517273 9.44996452331543 C -2.758157968521118 1.199994921684265 7.197573661804199 -2.745397329330444 11.25000190734863 2.124744176864624 C 15.30243396759033 -2.745397329330444 25.25816345214844 1.199994921684265 21.77262115478516 9.44996452331543 C 20.47154235839844 12.5284538269043 11.25000190734863 20.25000381469727 11.25000190734863 20.25000381469727 Z" stroke="none" fill="$primaryColor"/>
  </g>
</svg>
