<svg xmlns="http://www.w3.org/2000/svg" xmlns:xlink="http://www.w3.org/1999/xlink" width="66" height="66" viewBox="0 0 66 66">
  <defs>
    <filter id="사각형_31340" x="0" y="0" width="66" height="66" filterUnits="userSpaceOnUse">
      <feOffset input="SourceAlpha"/>
      <feGaussianBlur stdDeviation="5" result="blur"/>
      <feFlood flood-opacity="0.078"/>
      <feComposite operator="in" in2="blur"/>
      <feComposite in="SourceGraphic"/>
    </filter>
    <clipPath id="clip-path">
      <rect id="사각형_26355" data-name="사각형 26355" width="10.909" height="11.818" fill="none" stroke="#000" stroke-width="1.5"/>
    </clipPath>
  </defs>
  <g id="btn_bag_02" transform="translate(15 15)" opacity="0.8">
    <g transform="matrix(1, 0, 0, 1, -15, -15)" filter="url(#사각형_31340)">
      <rect id="사각형_31340-2" data-name="사각형 31340" width="36" height="36" transform="translate(15 15)" fill="rgba(255,90,90,0)"/>
    </g>
    <g id="ic_list_basket_02" transform="translate(7 6)">
      <rect id="사각형_31064" data-name="사각형 31064" width="22.105" height="23.066" fill="rgba(255,255,255,0)" opacity="0"/>
      <g id="그룹_36113" data-name="그룹 36113" transform="translate(-475 -639)">
        <g id="마스크_그룹_84" data-name="마스크 그룹 84" transform="translate(480.545 639)" clip-path="url(#clip-path)">
          <g id="사각형_26354" data-name="사각형 26354" fill="none" stroke="#000" stroke-width="1.5">
            <rect width="10.909" height="18.273" rx="5.455" stroke="none"/>
            <rect x="0.75" y="0.75" width="9.409" height="16.773" rx="4.705" fill="none"/>
          </g>
        </g>
        <g id="패스_10920" data-name="패스 10920" transform="translate(475 645)" fill="rgba(255,255,255,0)">
          <path d="M 19.79999923706055 15.25 L 2.200000047683716 15.25 C 2.007009983062744 15.25 1.850000023841858 15.07376003265381 1.850000023841858 14.85713958740234 L 1.850000023841858 14.82711029052734 L 1.847599983215332 14.79718017578125 L 0.7505818605422974 1.120076298713684 C 0.7611238360404968 0.9140099883079529 0.913818359375 0.75 1.100000023841858 0.75 L 20.89999961853027 0.75 C 21.086181640625 0.75 21.23887634277344 0.9140099883079529 21.24941825866699 1.120076298713684 L 20.15239906311035 14.79718017578125 L 20.14999961853027 14.82711029052734 L 20.14999961853027 14.85713958740234 C 20.14999961853027 15.07376003265381 19.99299049377441 15.25 19.79999923706055 15.25 Z" stroke="none"/>
          <path d="M 1.533464431762695 1.5 L 2.576173782348633 14.5 L 19.42382621765137 14.5 L 20.4665355682373 1.5 L 1.533464431762695 1.5 M 1.100000381469727 0 L 20.89999961853027 0 C 21.50750923156738 0 22 0.5116701126098633 22 1.142860412597656 L 20.89999961853027 14.85713958740234 C 20.89999961853027 15.48832035064697 20.40751075744629 16 19.79999923706055 16 L 2.200000762939453 16 C 1.592489242553711 16 1.100000381469727 15.48832035064697 1.100000381469727 14.85713958740234 L 0 1.142860412597656 C 0 0.5116701126098633 0.4924907684326172 0 1.100000381469727 0 Z" stroke="none" fill="#000"/>
        </g>
      </g>
    </g>
  </g>
</svg>
