<svg id="ic_heart_02" xmlns="http://www.w3.org/2000/svg" width="22" height="20" viewBox="0 0 22 20">
  <g id="패스_10868" data-name="패스 10868" transform="translate(0 0)" fill="none">
    <path d="M11,20S1.983,12.374.711,9.333C-2.7,1.185,7.038-2.711,11,2.1c3.962-4.81,13.7-.913,10.289,7.235C20.017,12.374,11,20,11,20Z" stroke="none"/>
    <path d="M 11.00004291534424 18.01861572265625 C 11.87296199798584 17.25621032714844 13.2314567565918 16.04852104187012 14.63561248779297 14.7180118560791 C 18.78424263000488 10.78695201873779 19.70271301269531 9.237872123718262 19.90496253967285 8.754491806030273 C 20.73689270019531 6.765491962432861 20.69651222229004 4.992931842803955 19.78818321228027 3.628431797027588 C 18.91423225402832 2.315571784973145 17.30893325805664 1.500001788139343 15.59873294830322 1.500001788139343 C 14.2043628692627 1.500001788139343 12.98233318328857 2.051261901855469 12.15776252746582 3.052241802215576 L 11.00001239776611 4.457661628723145 L 9.842252731323242 3.052241802215576 C 9.01766300201416 2.051261901855469 7.795632839202881 1.500001788139343 6.401262760162354 1.500001788139343 C 4.691272735595703 1.500001788139343 3.086062908172607 2.315631866455078 2.212042808532715 3.628591775894165 C 1.303652882575989 4.993181705474854 1.263192892074585 6.765691757202148 2.094972848892212 8.754322052001953 C 2.297042846679688 9.237281799316406 3.214082956314087 10.7843017578125 7.354773044586182 14.70889186859131 C 8.761024475097656 16.04174995422363 10.12455940246582 17.25394248962402 11.00004291534424 18.01861572265625 M 11.00000286102295 20.00000190734863 C 11.00000286102295 20.00000190734863 1.983382821083069 12.37379169464111 0.7112128734588623 9.333301544189453 C -2.696856737136841 1.185182332992554 7.037620544433594 -2.711498975753784 11.00000286102295 2.098511934280396 C 14.96237087249756 -2.711498022079468 24.69686126708984 1.185181498527527 21.28879356384277 9.333301544189453 C 20.01662254333496 12.37379169464111 11.00000286102295 20.00000190734863 11.00000286102295 20.00000190734863 Z" stroke="none" fill="#fff"/>
  </g>
</svg>
