<svg id="ic_heart_16" xmlns="http://www.w3.org/2000/svg" width="16" height="16" viewBox="0 0 16 16">
  <rect id="사각형_26362" data-name="사각형 26362" width="16" height="16" fill="rgba(255,133,133,0)" opacity="0.36"/>
  <g id="패스_10412" data-name="패스 10412" transform="translate(0.533 1.92)" fill="none">
    <path d="M7.467,13.44S1.346,8.315.483,6.272C-1.831.8,4.777-1.822,7.467,1.41c2.69-3.232,9.3-.614,6.984,4.862C13.587,8.315,7.467,13.44,7.467,13.44Z" stroke="none"/>
    <path d="M 7.466720104217529 12.12803268432617 C 9.774639129638672 10.14247512817383 13.01841449737549 7.09185266494751 13.5294075012207 5.882795810699463 C 14.09074783325195 4.554135799407959 14.06668758392334 3.368095636367798 13.45980739593506 2.452885627746582 C 12.86556720733643 1.556715607643127 11.7652473449707 1.000005602836609 10.58823776245117 1.000005602836609 C 9.63427734375 1.000005602836609 8.798677444458008 1.372835636138916 8.235357284545898 2.049825668334961 L 7.466667652130127 2.973625659942627 L 6.697977542877197 2.049825668334961 C 6.134657859802246 1.372835636138916 5.299057483673096 1.000005602836609 4.345097541809082 1.000005602836609 C 3.168227672576904 1.000005602836609 2.067957639694214 1.556755661964417 1.473667621612549 2.452995538711548 C 0.8667576313018799 3.368265628814697 0.8426376581192017 4.554275512695312 1.40387761592865 5.882685661315918 C 1.914542675018311 7.090967655181885 5.158597469329834 10.14201259613037 7.466720104217529 12.12803268432617 M 7.466667652130127 13.43999576568604 C 7.466667652130127 13.43999576568604 1.34629762172699 8.315185546875 0.482767641544342 6.271975517272949 C -1.830592513084412 0.7964455485343933 4.77705717086792 -1.822124004364014 7.466667652130127 1.410205602645874 C 10.15627765655518 -1.822125673294067 16.7639274597168 0.7964466214179993 14.4505672454834 6.271975517272949 C 13.58703804016113 8.315185546875 7.466667652130127 13.43999576568604 7.466667652130127 13.43999576568604 Z" stroke="none" fill="#000"/>
  </g>
</svg>
