<svg id="ic_heart_16" xmlns="http://www.w3.org/2000/svg" width="16" height="16" viewBox="0 0 16 16">
  <rect id="사각형_26362" data-name="사각형 26362" width="16" height="16" fill="rgba(255,133,133,0)" opacity="0.36"/>
  <g id="패스_10412" data-name="패스 10412" transform="translate(0.533 1.92)" fill="#8559ee">
    <path d="M 7.466684818267822 12.78544044494629 C 5.599116802215576 11.19505023956299 1.573866128921509 7.569257736206055 0.9433276653289795 6.077325820922852 C 0.3137276470661163 4.587125778198242 0.353017657995224 3.238285541534424 1.056957602500916 2.17667555809021 C 1.742737650871277 1.142465591430664 3.002687692642212 0.5000056624412537 4.345097541809082 0.5000056624412537 C 5.450217723846436 0.5000056624412537 6.422317504882812 0.9368356466293335 7.082327842712402 1.730015635490417 L 7.466667652130127 2.19191575050354 L 7.851007461547852 1.730015635490417 C 8.511017799377441 0.9368356466293335 9.483118057250977 0.5000056624412537 10.58823776245117 0.5000056624412537 C 11.93078804016113 0.5000056624412537 13.19078731536865 1.142425656318665 13.8765172958374 2.176555633544922 C 14.58042812347412 3.238105535507202 14.61966800689697 4.586995601654053 13.98998737335205 6.077385425567627 C 13.35925102233887 7.569769859313965 9.334170341491699 11.19523620605469 7.466684818267822 12.78544044494629 Z" stroke="none"/>
    <path d="M 7.466720104217529 12.12803268432617 C 9.774639129638672 10.14247512817383 13.01841449737549 7.09185266494751 13.5294075012207 5.882795810699463 C 14.09074783325195 4.554135799407959 14.06668758392334 3.368095636367798 13.45980739593506 2.452885627746582 C 12.86556720733643 1.556715607643127 11.7652473449707 1.000005602836609 10.58823776245117 1.000005602836609 C 9.63427734375 1.000005602836609 8.798677444458008 1.372835636138916 8.235357284545898 2.049825668334961 L 7.466667652130127 2.973625659942627 L 6.697977542877197 2.049825668334961 C 6.134657859802246 1.372835636138916 5.299057483673096 1.000005602836609 4.345097541809082 1.000005602836609 C 3.168227672576904 1.000005602836609 2.067957639694214 1.556755661964417 1.473667621612549 2.452995538711548 C 0.8667576313018799 3.368265628814697 0.8426376581192017 4.554275512695312 1.40387761592865 5.882685661315918 C 1.914542675018311 7.090967655181885 5.158597469329834 10.14201259613037 7.466720104217529 12.12803268432617 M 7.466667652130127 13.43999576568604 C 7.466667652130127 13.43999576568604 1.34629762172699 8.315185546875 0.482767641544342 6.271975517272949 C -1.830592513084412 0.7964455485343933 4.77705717086792 -1.822124004364014 7.466667652130127 1.410205602645874 C 10.15627765655518 -1.822125673294067 16.7639274597168 0.7964466214179993 14.4505672454834 6.271975517272949 C 13.58703804016113 8.315185546875 7.466667652130127 13.43999576568604 7.466667652130127 13.43999576568604 Z" stroke="none" fill="#8559ee"/>
  </g>
</svg>
