<svg xmlns="http://www.w3.org/2000/svg" width="107" height="107" viewBox="0 0 107 107">
  <g id="그룹_39112" data-name="그룹 39112" transform="translate(18763 5195)">
    <path id="패스_10925" data-name="패스 10925" d="M53.5,3a50.514,50.514,0,0,0-19.656,97.033A50.514,50.514,0,0,0,73.156,6.967,50.181,50.181,0,0,0,53.5,3m0-3A53.5,53.5,0,1,1,0,53.5,53.5,53.5,0,0,1,53.5,0Z" transform="translate(-18763 -5195)" fill="#fff"/>
    <path id="패스_10927" data-name="패스 10927" d="M-17,1.23V-11.956h1.7V1.23Zm-5.441-3.206a3.023,3.023,0,0,1-2.522-1.237,5.342,5.342,0,0,1-.95-3.336,5.327,5.327,0,0,1,.947-3.35,3.039,3.039,0,0,1,2.526-1.217,3,3,0,0,1,2.512,1.227,5.363,5.363,0,0,1,.94,3.339A5.39,5.39,0,0,1-19.93-3.2,3,3,0,0,1-22.446-1.976Zm0-7.684a1.486,1.486,0,0,0-1.292.841,4.416,4.416,0,0,0-.506,2.283,4.313,4.313,0,0,0,.52,2.27,1.5,1.5,0,0,0,1.278.848,1.5,1.5,0,0,0,1.271-.837,4.3,4.3,0,0,0,.52-2.28,4.44,4.44,0,0,0-.5-2.283A1.479,1.479,0,0,0-22.446-9.659ZM-3.132-2.481v-9.475h1.7v9.475Zm-9.235-2.365v-6.3h1.7V-9.2h1.9v-1.941H-7.09v2.6h1.326v-3.151h1.7V-2.9h-1.7V-7.1H-7.09v2.249Zm3.6-2.926h-1.9v1.5h1.9ZM-10.029.8V-3.712h1.723V-.656h7.027V.8ZM2.442-4.1v-6.692h8.682v1.415H4.164v1.2h6.583v1.415H4.164v1.244h7.171V-4.1ZM.637-.533V-1.962H12.873V-.533ZM24.79-5.318V1.23H23.068V-11.956H24.79v5.2h2.044v1.442ZM15.4-1.654l-1.285-1.2a9.89,9.89,0,0,0,5.346-6.521H14.878v-1.442h6.535A11.689,11.689,0,0,1,15.4-1.654ZM-28.817,12.082a8.52,8.52,0,0,1-4.771-2.126,5.693,5.693,0,0,1-1.969,1.3,10.352,10.352,0,0,1-2.734.817l-.964-1.271a8.591,8.591,0,0,0,2.939-.687,3.362,3.362,0,0,0,1.688-1.316H-38.3V7.352h9.434V8.794h-3.664a3.761,3.761,0,0,0,1.747,1.343,7.4,7.4,0,0,0,2.8.66Zm-10.89,2.352V12.991h5.25V11.453h1.723v1.538h5.264v1.442Zm6.118,5.8a6.739,6.739,0,0,1-3.319-.667,2.075,2.075,0,0,1-1.159-1.883A2.059,2.059,0,0,1-36.9,15.818a6.742,6.742,0,0,1,3.315-.667,6.675,6.675,0,0,1,3.326.673,2.066,2.066,0,0,1,1.152,1.856,2.075,2.075,0,0,1-1.159,1.883A6.739,6.739,0,0,1-33.588,20.23Zm0-3.664q-2.728,0-2.728,1.114,0,.526.69.837a5.165,5.165,0,0,0,2.037.311,5.165,5.165,0,0,0,2.037-.311q.69-.311.69-.837Q-30.861,16.566-33.588,16.566Zm7.392,1.9V17.052h3.329V14.967h-1.62V10.879h7.055V9.607H-24.46V8.192h8.75v4.02h-7.055v1.34h7.321v1.415h-1.709v2.085h3.192v1.415Zm5.052-1.415h2.27V14.967h-2.27Zm18.186-2.14v-2.7h-.834v2.714h-1.7V7.338h1.7V10.77h.834V7.044H-1.25v7.868Zm-2.926-.465q-5.018.28-6.986.28l-.205-1.442q1.34,0,2.953-.041v-1.23h-1.962V7.659H-6.65V9.1h-3.726v1.483h3.808v1.429H-8.441v1.176q1.415-.041,2.475-.109Zm4.3,5.715a6.269,6.269,0,0,1-2.283-1.921,4.453,4.453,0,0,1-.971,1.125,5.369,5.369,0,0,1-1.312.919l-1.217-1.114q2.646-1.142,2.646-3.432v-.424h1.7v.424q0,2.229,2.659,3.179Zm-5.975-1.271a3.451,3.451,0,0,1-1.053-.971A4.818,4.818,0,0,1-9.6,19.174a6.323,6.323,0,0,1-1.374,1.042l-1.23-1.08q2.646-1.2,2.646-3.4v-.41h1.675v.41a1.966,1.966,0,0,0,.509,1.234,2.736,2.736,0,0,0,1.227.878Zm15.7-5.742a4.8,4.8,0,0,1-1.09,2.864,3.024,3.024,0,0,1-2.341,1.012,3.023,3.023,0,0,1-2.522-1.237,5.342,5.342,0,0,1-.95-3.336A5.327,5.327,0,0,1,2.187,9.1,3.039,3.039,0,0,1,4.713,7.885,3.027,3.027,0,0,1,7.062,8.9a4.7,4.7,0,0,1,1.083,2.806h2.3V7.044h1.7V20.23h-1.7V13.148ZM4.713,9.341a1.479,1.479,0,0,0-1.289.844,4.444,4.444,0,0,0-.5,2.28,4.287,4.287,0,0,0,.523,2.273,1.5,1.5,0,0,0,1.268.844,1.5,1.5,0,0,0,1.278-.841,4.306,4.306,0,0,0,.52-2.276,4.465,4.465,0,0,0-.5-2.283A1.48,1.48,0,0,0,4.713,9.341Zm9.62,9.071V17H17.4V13.962a2.941,2.941,0,0,1-1.5-2.632,2.879,2.879,0,0,1,1.289-2.481,5.528,5.528,0,0,1,3.264-.909,5.507,5.507,0,0,1,3.247.909,2.876,2.876,0,0,1,1.292,2.481,2.987,2.987,0,0,1-1.49,2.632V17H26.57v1.415Zm6.118-9.058a3.491,3.491,0,0,0-2.047.533,1.765,1.765,0,0,0,0,2.9,3.508,3.508,0,0,0,2.047.53,3.461,3.461,0,0,0,2.037-.533,1.768,1.768,0,0,0,0-2.892A3.458,3.458,0,0,0,20.452,9.354ZM19.092,17h2.721V14.6a7.581,7.581,0,0,1-2.721,0Zm9.743-2.83a1.268,1.268,0,0,1-.889-.325,1.044,1.044,0,0,1-.355-.8,1.016,1.016,0,0,1,.366-.807,1.35,1.35,0,0,1,.913-.314,1.3,1.3,0,0,1,.906.318,1.1,1.1,0,0,1-.007,1.617A1.364,1.364,0,0,1,28.835,14.167Zm0,5a1.26,1.26,0,0,1-.889-.328,1.055,1.055,0,0,1-.355-.807,1.016,1.016,0,0,1,.366-.807,1.35,1.35,0,0,1,.913-.314,1.3,1.3,0,0,1,.906.318,1.1,1.1,0,0,1-.007,1.62A1.355,1.355,0,0,1,28.835,19.171ZM31.387,19V9.2H34.86q5.223,0,5.223,4.778a4.832,4.832,0,0,1-1.425,3.657A5.256,5.256,0,0,1,34.86,19Zm2.208-8v6.214h1.094a2.956,2.956,0,0,0,2.252-.861A3.268,3.268,0,0,0,37.758,14a2.965,2.965,0,0,0-.81-2.2,3.088,3.088,0,0,0-2.273-.8Z" transform="translate(-18710 -5148)" fill="#fff"/>
  </g>
</svg>
