<svg xmlns="http://www.w3.org/2000/svg" width="40" height="40" viewBox="0 0 40 40">
  <g id="그룹_37734" data-name="그룹 37734" transform="translate(-793 -2836)">
    <path id="패스_11288" data-name="패스 11288" d="M0,0H40V40H0Z" transform="translate(793 2836)" fill="#ffc6c6" opacity="0"/>
    <g id="그룹_32310" data-name="그룹 32310" transform="translate(-539.986 2570.315)">
      <g id="그룹_32311" data-name="그룹 32311" transform="translate(1354.297 278.421)">
        <path id="패스_10912" data-name="패스 10912" d="M1392.713,305.554a7.393,7.393,0,1,1,7.394-7.393A7.4,7.4,0,0,1,1392.713,305.554Zm0-13.72a6.326,6.326,0,1,0,6.326,6.326A6.334,6.334,0,0,0,1392.713,291.834Z" transform="translate(-1385.319 -290.767)" fill="#757575"/>
        <g id="그룹_32310-2" data-name="그룹 32310" transform="translate(2.953 3.853)">
          <path id="패스_10913" data-name="패스 10913" d="M1400.374,308.68a3.54,3.54,0,1,1,3.2-5.043l-.966.454a2.473,2.473,0,1,0,0,2.1l.966.454A3.555,3.555,0,0,1,1400.374,308.68Z" transform="translate(-1395.691 -301.6)" fill="#757575"/>
          <rect id="사각형_31532" data-name="사각형 31532" width="4.54" height="1.067" transform="translate(0 2.241)" fill="#757575"/>
          <rect id="사각형_31533" data-name="사각형 31533" width="4.54" height="1.067" transform="translate(0 3.772)" fill="#757575"/>
        </g>
      </g>
      <g id="그룹_32313" data-name="그룹 32313" transform="translate(1337.171 278.421)">
        <path id="패스_10914" data-name="패스 10914" d="M1344.564,305.554a7.393,7.393,0,1,1,7.393-7.393A7.4,7.4,0,0,1,1344.564,305.554Zm0-13.72a6.326,6.326,0,1,0,6.326,6.326A6.333,6.333,0,0,0,1344.564,291.834Z" transform="translate(-1337.171 -290.767)" fill="#757575"/>
        <g id="그룹_32312" data-name="그룹 32312" transform="translate(5.446 3.12)">
          <path id="패스_10915" data-name="패스 10915" d="M1354.075,308.085v-1.051a3.038,3.038,0,0,1-1.593-.458l.249-.7a2.781,2.781,0,0,0,1.5.448c.739,0,1.239-.427,1.239-1.02,0-.572-.407-.926-1.176-1.239-1.062-.417-1.719-.9-1.719-1.8a1.709,1.709,0,0,1,1.573-1.676v-1.051h.646v1.009a2.782,2.782,0,0,1,1.353.364l-.26.687a2.517,2.517,0,0,0-1.312-.354c-.8,0-1.1.479-1.1.9,0,.541.385.812,1.291,1.186,1.072.437,1.614.98,1.614,1.905a1.811,1.811,0,0,1-1.646,1.77v1.083Z" transform="translate(-1352.482 -299.538)" fill="#757575"/>
        </g>
        <circle id="타원_1852" data-name="타원 1852" cx="0.622" cy="0.622" r="0.622" transform="translate(2.361 6.771)" fill="#757575"/>
        <circle id="타원_1853" data-name="타원 1853" cx="0.622" cy="0.622" r="0.622" transform="translate(11.085 6.771)" fill="#757575"/>
      </g>
      <g id="그룹_32314" data-name="그룹 32314" transform="translate(1344.172 271.605)">
        <path id="패스_10916" data-name="패스 10916" d="M1358.7,339.571l-1.229-5.211a.534.534,0,0,1,.9-.5,11.329,11.329,0,0,0,16.356-.35l.786.722a12.432,12.432,0,0,1-9.132,4.013,12.3,12.3,0,0,1-7.487-2.514l.848,3.594Z" transform="translate(-1357.241 -311.491)" fill="#757575"/>
        <path id="패스_10917" data-name="패스 10917" d="M1357.637,277.665l-.785-.722a12.429,12.429,0,0,1,9.131-4.013,12.3,12.3,0,0,1,7.487,2.514l-.848-3.594,1.038-.245,1.229,5.21a.533.533,0,0,1-.9.5,11.329,11.329,0,0,0-16.357.35Z" transform="translate(-1356.852 -271.605)" fill="#757575"/>
      </g>
    </g>
  </g>
</svg>
