<svg xmlns="http://www.w3.org/2000/svg" width="75.399" height="26" viewBox="0 0 75.399 26">
  <g id="그룹_32283" data-name="그룹 32283" transform="translate(-75.933 -81.082)">
    <path id="패스_8229" data-name="패스 8229" d="M524.67,2454.195l-3.617,8.239-4.092-8.239h-3.148l5.8,11.432-2.39,5.338h3.055l7.447-16.77Zm-12.6,12.74h-2.99v-1.189a5.817,5.817,0,0,1-3.933,1.449,6.635,6.635,0,0,1,0-13.259,5.812,5.812,0,0,1,3.933,1.449v-1.19h2.99Zm-2.638-6.369a3.913,3.913,0,1,0-3.9,4.224,3.987,3.987,0,0,0,3.9-4.224m-25.519,10.4h3.12v-5.109a5.81,5.81,0,0,0,3.8,1.339,6.635,6.635,0,0,0,0-13.259,5.813,5.813,0,0,0-3.933,1.449v-1.19h-2.989Zm6.538-14.624a4.238,4.238,0,1,1-3.9,4.225,3.987,3.987,0,0,1,3.9-4.225" transform="translate(-376.392 -2366.873)"/>
    <path id="패스_8230" data-name="패스 8230" d="M452.6,2456.084a13,13,0,1,1-13-13,13,13,0,0,1,13,13m-10.824-6.109v6.537l-4.54-6.537H433.49v12.22h3.935v-6.537l4.54,6.537h3.745v-12.22Z" transform="translate(-350.667 -2362.003)"/>
  </g>
</svg>
