<svg xmlns="http://www.w3.org/2000/svg" width="69.038" height="23.643" viewBox="0 0 69.038 23.643">
  <g id="그룹_32296" data-name="그룹 32296" transform="translate(-423.43 528.994)">
    <path id="패스_10879" data-name="패스 10879" d="M463.34-528.411c-.6.165-1.444.42-1.865.585l-.786.292v7.733c0,4.242.073,7.77.146,7.824.073.037,1.188.183,2.468.311,3.8.348,6.216-.2,7.606-1.773a4.5,4.5,0,0,0,1.115-3.309,4.17,4.17,0,0,0-1.719-3.492c-.4-.256-.786-.494-.823-.53-.037-.018.183-.274.476-.549a3.594,3.594,0,0,0,1.224-2.98c0-1.847-.731-2.907-2.614-3.784A9.219,9.219,0,0,0,463.34-528.411Zm4.15,2.377a2.2,2.2,0,0,1,.238,3.547,4.3,4.3,0,0,1-3.144.932h-1.152v-4.717l.877-.183A4.376,4.376,0,0,1,467.49-526.034Zm-.2,6.691a3.91,3.91,0,0,1,1.28.823,2.025,2.025,0,0,1,.658,1.664,2.488,2.488,0,0,1-1.408,2.761,4.286,4.286,0,0,1-2.559.365l-1.737-.055-.055-2.889-.055-2.87H465A11.252,11.252,0,0,1,467.289-519.343Z" transform="translate(-23.182 -0.222)" fill="#020203" fill-rule="evenodd"/>
    <path id="패스_10880" data-name="패스 10880" d="M423.43-519.477v8.318h2.742v-8.83l3.51,4.406,3.492,4.424h3.273l-.622-.786c-4.533-5.576-6.38-8.007-6.252-8.208.073-.128.659-.859,1.262-1.609.621-.749,1.9-2.395,2.834-3.656l1.7-2.285-1.517-.055c-1.206-.037-1.554,0-1.682.219-.256.457-2.888,3.785-4.479,5.686l-1.518,1.773V-522.8c0-1.517-.055-3.254-.11-3.876l-.128-1.115h-2.5Z" transform="translate(0 -0.746)" fill="#020203" fill-rule="evenodd"/>
    <path id="패스_10881" data-name="패스 10881" d="M513.823-528.788c-.521.107-1.442.36-2.069.561l-1.148.36v16.537h3.2l.04-2.883.027-2.9.507.121a8.665,8.665,0,0,0,4.845-.547,6.1,6.1,0,0,0,2.923-6.5,5.761,5.761,0,0,0-4.338-4.792A10.868,10.868,0,0,0,513.823-528.788Zm3.577,2.776a3.144,3.144,0,0,1,1.428,1.855,6.745,6.745,0,0,1,.093,1.575c-.133,2.362-1.642,3.336-4.4,2.869l-.64-.107v-6.233l.64-.134A5.513,5.513,0,0,1,517.4-526.012Z" transform="translate(-54.24)" fill="#020203" fill-rule="evenodd"/>
    <path id="패스_10882" data-name="패스 10882" d="M546.422-516.8c-1.842.254-2.429.427-2.349.707a10.642,10.642,0,0,1,.16,1.135l.094.921.4-.08c.214-.04,1.161-.12,2.082-.16,1.842-.094,2.442.013,2.923.52a2.923,2.923,0,0,1,.507,1.535,12.468,12.468,0,0,1-1.281-.187,5.518,5.518,0,0,0-2.216-.08,4.51,4.51,0,0,0-3.617,2.4,3.465,3.465,0,0,0-.374,2.028,3.466,3.466,0,0,0,.374,2.029c1.254,2.562,4.27,3.123,8.809,1.668l1.361-.44v-4.4c0-5.018-.027-5.205-1.095-6.339a4.315,4.315,0,0,0-2.722-1.308A7.883,7.883,0,0,0,546.422-516.8Zm2.976,7.02.761.16v3.257l-.614.093c-.347.04-1.068.08-1.615.08-.921,0-1-.027-1.468-.441a1.4,1.4,0,0,1-.547-1.188C545.768-509.58,546.983-510.261,549.4-509.78Z" transform="translate(-74.241 -7.476)" fill="#020203" fill-rule="evenodd"/>
    <path id="패스_10883" data-name="패스 10883" d="M577.548-511.48c0,4.9.08,5.619.707,6.566a3.668,3.668,0,0,0,2.109,1.495,7.668,7.668,0,0,0,3.657.054c1.108-.267,1.135-.267,1.135.227a2.932,2.932,0,0,1-1.041,1.989,8.144,8.144,0,0,1-4.284,1.321c-.814,0-.853.093-.747,1.4l.107,1.175,1.548-.08c3.4-.173,6.006-1.4,6.94-3.257.654-1.308.681-1.655.681-8.742v-6.646h-3.2v9.85l-.841.147a7.445,7.445,0,0,1-2.923,0c-.587-.32-.64-.761-.64-5.526v-4.471h-3.2Z" transform="translate(-95.89 -8.098)" fill="#020203" fill-rule="evenodd"/>
  </g>
</svg>
