<svg xmlns="http://www.w3.org/2000/svg" width="40" height="40" viewBox="0 0 40 40">
  <g id="그룹_32326" data-name="그룹 32326" transform="translate(-1020 -3491)">
    <rect id="사각형_31534" data-name="사각형 31534" width="40" height="40" transform="translate(1020 3491)" fill="#ffc6c6" opacity="0"/>
    <g id="그룹_32315" data-name="그룹 32315" transform="translate(-436.629 3118.957)">
      <path id="패스_10918" data-name="패스 10918" d="M1502.879,418.972h0a2.132,2.132,0,0,1-2-1.4l-.592-1.628-6.187-17-.593-1.628a2.125,2.125,0,0,1,1.27-2.723l9.871-3.593a2.11,2.11,0,0,1,.726-.129,2.132,2.132,0,0,1,2,1.4c.054.151.269.74.592,1.629l6.78,18.626a2.128,2.128,0,0,1-1.27,2.723l-9.871,3.593A2.122,2.122,0,0,1,1502.879,418.972Zm2.5-26.99a1.021,1.021,0,0,0-.348.062l-9.871,3.593a1.019,1.019,0,0,0-.609,1.305l.592,1.629,6.187,17,.593,1.628a1.036,1.036,0,0,0,1.306.61l9.871-3.593a1.02,1.02,0,0,0,.608-1.306l-6.779-18.625-.593-1.629A1.021,1.021,0,0,0,1505.378,391.982Z" transform="translate(-21.312 -9.998)" fill="#757575"/>
      <g id="그룹_32315-2" data-name="그룹 32315" transform="translate(1472.757 383.541)">
        <path id="패스_10919" data-name="패스 10919" d="M1512.588,449.99a.553.553,0,0,1-.189-1.072l12.824-4.668a.553.553,0,0,1,.378,1.039l-12.825,4.668A.547.547,0,0,1,1512.588,449.99Z" transform="translate(-1505.848 -427.22)" fill="#757575"/>
        <path id="패스_10920" data-name="패스 10920" d="M1495.8,403.875a.553.553,0,0,1-.189-1.073l12.825-4.668a.553.553,0,0,1,.378,1.039l-12.825,4.668A.547.547,0,0,1,1495.8,403.875Z" transform="translate(-1495.249 -398.101)" fill="#757575"/>
      </g>
      <path id="패스_10921" data-name="패스 10921" d="M1508.235,401a.553.553,0,0,1-.189-1.073l2.53-.921a.553.553,0,0,1,.378,1.039l-2.53.921A.555.555,0,0,1,1508.235,401Z" transform="translate(-30.343 -15.109)" fill="#757575"/>
      <path id="패스_10922" data-name="패스 10922" d="M1529.91,455.712a.553.553,0,0,1-.189-1.073l1.185-.431a.553.553,0,1,1,.378,1.039l-1.185.431A.549.549,0,0,1,1529.91,455.712Z" transform="translate(-44.029 -49.967)" fill="#757575"/>
      <g id="그룹_32317" data-name="그룹 32317" transform="translate(1476.786 388.965)">
        <path id="패스_10923" data-name="패스 10923" d="M1513.192,439.295a1.464,1.464,0,0,1-1.372-.963l-.76-2.086,1.039-.379.76,2.087a.355.355,0,0,0,.455.213l2.087-.76.378,1.039-2.087.76A1.459,1.459,0,0,1,1513.192,439.295Z" transform="translate(-1509.261 -427.372)" fill="#757575"/>
        <path id="패스_10924" data-name="패스 10924" d="M1529.794,432.385l-.378-1.039,2.317-.843a.111.111,0,0,0,.066-.143l-.843-2.316,1.039-.378.843,2.316a1.218,1.218,0,0,1-.727,1.56Z" transform="translate(-1520.851 -422.193)" fill="#757575"/>
        <g id="그룹_32316" data-name="그룹 32316" transform="translate(0)">
          <path id="패스_10925" data-name="패스 10925" d="M1524.895,416.244l-.759-2.086a.356.356,0,0,0-.456-.212l-2.087.76-.378-1.039,2.087-.76a1.463,1.463,0,0,1,1.872.873l.76,2.087Z" transform="translate(-1515.673 -412.818)" fill="#757575"/>
          <path id="패스_10926" data-name="패스 10926" d="M1507.1,422.231l-.843-2.316a1.216,1.216,0,0,1,.727-1.559l2.317-.843.378,1.039-2.317.843a.107.107,0,0,0-.062.057.11.11,0,0,0,0,.084l.843,2.317Z" transform="translate(-1506.178 -415.783)" fill="#757575"/>
        </g>
      </g>
      <g id="그룹_32325" data-name="그룹 32325" transform="translate(1459.629 375.041)">
        <path id="패스_10927" data-name="패스 10927" d="M1471.627,403.138a2.132,2.132,0,0,1-.727-.129l-9.872-3.593a2.124,2.124,0,0,1-1.27-2.723l.592-1.629c.29-.8,6-16.486,6.187-17l.028-.076c.308-.848.512-1.408.563-1.55a2.128,2.128,0,0,1,2.724-1.272l9.871,3.593a2.114,2.114,0,0,1,1.29,1.326l.174.525-1.049.349-.174-.524a1.013,1.013,0,0,0-.619-.636l-9.871-3.594a1.02,1.02,0,0,0-1.306.609c-.052.144-.267.735-.592,1.628-.187.512-5.9,16.2-6.186,17l-.593,1.629a1.019,1.019,0,0,0,.609,1.305l9.872,3.593a1.017,1.017,0,0,0,1.3-.609l1.436-3.946,1.039.377-1.436,3.948a2.128,2.128,0,0,1-1.994,1.4Z" transform="translate(-1459.629 -375.041)" fill="#757575"/>
        <g id="그룹_32318" data-name="그룹 32318" transform="translate(0.533 2.506)">
          <rect id="사각형_31534-2" data-name="사각형 31534" width="1.106" height="14.754" transform="matrix(0.342, -0.94, 0.94, 0.342, 0, 18.036)" fill="#757575"/>
          <rect id="사각형_31535" data-name="사각형 31535" width="1.106" height="11.187" transform="translate(6.187 1.039) rotate(-70)" fill="#757575"/>
        </g>
        <rect id="사각형_31536" data-name="사각형 31536" width="1.106" height="3.798" transform="translate(12.432 3.866) rotate(-70.003)" fill="#757575"/>
        <rect id="사각형_31537" data-name="사각형 31537" width="1.106" height="2.368" transform="translate(5.787 24.213) rotate(-70.013)" fill="#757575"/>
        <g id="그룹_32324" data-name="그룹 32324" transform="translate(4.785 8.016)">
          <g id="그룹_32320" data-name="그룹 32320">
            <path id="패스_10928" data-name="패스 10928" d="M1475.661,416.548l-2.087-.76a1.46,1.46,0,0,1-.873-1.872l.759-2.087,1.039.378-.76,2.087a.355.355,0,0,0,.212.455l2.087.76Z" transform="translate(-1472.613 -406.287)" fill="#757575"/>
            <path id="패스_10929" data-name="패스 10929" d="M1490.2,426.163a1.21,1.21,0,0,1-.416-.073l-2.317-.844.378-1.039,2.317.844a.108.108,0,0,0,.1-.014l.447-.325.65.894-.447.325A1.212,1.212,0,0,1,1490.2,426.163Z" transform="translate(-1481.99 -414.102)" fill="#757575"/>
            <g id="그룹_32319" data-name="그룹 32319" transform="translate(1.731)">
              <path id="패스_10930" data-name="패스 10930" d="M1478.348,400.287l-1.039-.378.844-2.317a1.215,1.215,0,0,1,1.558-.727l2.317.843-.378,1.039-2.316-.843a.11.11,0,0,0-.142.066Z" transform="translate(-1477.309 -396.791)" fill="#757575"/>
            </g>
          </g>
          <g id="그룹_32323" data-name="그룹 32323" transform="translate(1.595 2.123)">
            <path id="패스_10931" data-name="패스 10931" d="M1479.436,414.717a.942.942,0,0,1-.325-.057l-1.544-.562a.952.952,0,0,1-.568-1.22l.561-1.543a.972.972,0,0,1,1.22-.569l1.543.562a.954.954,0,0,1,.569,1.219l-.562,1.545A.956.956,0,0,1,1479.436,414.717Zm-1.346-1.606,1.254.457.456-1.254-1.254-.457Z" transform="translate(-1476.941 -407.705)" fill="#757575"/>
            <g id="그룹_32321" data-name="그룹 32321" transform="translate(3.922 4.719)">
              <path id="사각형_31538" data-name="사각형 31538" d="M.248,0h0A.249.249,0,0,1,.5.249v0A.249.249,0,0,1,.248.5h0A.248.248,0,0,1,0,.25v0A.248.248,0,0,1,.248,0Z" transform="translate(0 2.313) rotate(-70.049)" fill="#757575"/>
              <path id="사각형_31539" data-name="사각형 31539" d="M.249,0h0A.249.249,0,0,1,.5.249v0A.248.248,0,0,1,.25.5h0A.249.249,0,0,1,0,.249v0A.249.249,0,0,1,.249,0Z" transform="matrix(0.342, -0.94, 0.94, 0.342, 0.664, 2.024)" fill="#757575"/>
              <path id="패스_10932" data-name="패스 10932" d="M1489.106,416.3l.286.1a.1.1,0,0,0,.124-.057l.137-.377.377.137a.1.1,0,0,0,.124-.058l.1-.286a.1.1,0,0,0-.058-.124l-.754-.274a.1.1,0,0,0-.124.057l-.274.754A.1.1,0,0,0,1489.106,416.3Z" transform="translate(-1488.504 -415.355)" fill="#757575"/>
              <path id="패스_10933" data-name="패스 10933" d="M1492.577,419.905l-.377-.137.137-.377a.1.1,0,0,0-.057-.124l-.286-.1a.1.1,0,0,0-.124.058l-.274.754a.1.1,0,0,0,.058.124l.377.137s-.139.381-.137.377a.1.1,0,0,0,.058.125l.286.1a.1.1,0,0,0,.124-.058l.274-.754A.1.1,0,0,0,1492.577,419.905Z" transform="translate(-1490.112 -417.756)" fill="#757575"/>
            </g>
            <g id="그룹_32322" data-name="그룹 32322" transform="translate(1.732)">
              <path id="패스_10934" data-name="패스 10934" d="M1488.366,404.752l.286.1a.1.1,0,0,0,.124-.058l.1-.286a.1.1,0,0,0-.058-.124l-.286-.1a.1.1,0,0,0-.124.058l-.1.286A.1.1,0,0,0,1488.366,404.752Z" transform="translate(-1485.847 -403.642)" fill="#757575"/>
              <path id="사각형_31540" data-name="사각형 31540" d="M.249,0h0A.248.248,0,0,1,.5.248v0A.25.25,0,0,1,.248.5h0A.248.248,0,0,1,0,.25v0A.249.249,0,0,1,.249,0Z" transform="translate(1.764 1.364) rotate(-69.901)" fill="#757575"/>
              <path id="사각형_31541" data-name="사각형 31541" d="M.247,0h0A.249.249,0,0,1,.5.249v0A.249.249,0,0,1,.249.5h0A.248.248,0,0,1,0,.25v0A.247.247,0,0,1,.247,0Z" transform="translate(0 2.313) rotate(-70.058)" fill="#757575"/>
              <path id="패스_10935" data-name="패스 10935" d="M1486.342,408.2l-.286-.1a.1.1,0,0,0-.124.058l-.137.377-.377-.137a.1.1,0,0,0-.124.057l-.1.286a.1.1,0,0,0,.058.124l.754.275a.1.1,0,0,0,.124-.058l.275-.754A.1.1,0,0,0,1486.342,408.2Z" transform="translate(-1483.878 -406.047)" fill="#757575"/>
              <path id="패스_10936" data-name="패스 10936" d="M1483.164,403.494l.377.137-.137.377a.1.1,0,0,0,.058.124l.286.1a.1.1,0,0,0,.124-.058c0-.014.276-.759.275-.754a.1.1,0,0,0-.059-.124l-.377-.137.138-.377a.1.1,0,0,0-.058-.124l-.286-.1a.1.1,0,0,0-.125.058c0,.008-.274.754-.274.754A.1.1,0,0,0,1483.164,403.494Z" transform="translate(-1482.562 -402.552)" fill="#757575"/>
            </g>
          </g>
        </g>
      </g>
    </g>
  </g>
</svg>
