<svg xmlns="http://www.w3.org/2000/svg" width="96" height="26" viewBox="0 0 96 26">
  <g id="그룹_32298" data-name="그룹 32298" transform="translate(-468.581 -3731.757)">
    <g id="그룹_32280" data-name="그룹 32280" transform="translate(498.282 3735.479)">
      <g id="그룹_32279" data-name="그룹 32279" transform="translate(0 0)">
        <path id="패스_10884" data-name="패스 10884" d="M390.335-467.445c.336.168,1.417.224,4.362.168a32.456,32.456,0,0,0,4.213-.224c.3-.13.336.075.373,2.442l.056,2.572.988.056.97.056.019-4.474c.019-2.479.056-4.586.075-4.679.019-.112.056-.317.075-.466.019-.205.261-.28,1.044-.28h1.025v-1.678H401.5l-.056-2.573-.056-2.554-.932-.056a2.533,2.533,0,0,0-1.081.074,50.133,50.133,0,0,0-.131,5.033c0,4.474-.019,4.9-.317,5.033a36.46,36.46,0,0,1-7.121.093c-.373-.2-.391-.354-.429-4.828l-.056-4.6-.97-.056-.988-.056v4.865C389.366-468.34,389.422-467.948,390.335-467.445Z" transform="translate(-373.688 479.17)" fill="#fff"/>
        <path id="패스_10885" data-name="패스 10885" d="M317.755-378.1a30.83,30.83,0,0,0-3.638-.165h-2.751v16.685h3.307v-6.268l1.7-.075a5.411,5.411,0,0,0,2.541-.451,5.69,5.69,0,0,0,2.631-2.51,3.826,3.826,0,0,0,.421-2.27,3.907,3.907,0,0,0-.421-2.285A4.987,4.987,0,0,0,317.755-378.1ZM315.62-370h-.947v-6.058l1.112.075c1.984.135,2.8.977,2.8,2.916C318.581-371.039,317.589-370,315.62-370Z" transform="translate(-280.693 378.381)" fill="#fff"/>
        <path id="패스_10886" data-name="패스 10886" d="M364.23-474.05v-5.22h-1.864v16.777h1.864v-9.88h2.237v-1.678H364.23Z" transform="translate(-351.721 479.27)" fill="#fff"/>
        <path id="패스_10887" data-name="패스 10887" d="M397.753-371.609c-.09-4-.105-4.239-.436-4.916a4.5,4.5,0,0,0-2.285-2.059,5.018,5.018,0,0,0-2.405-.421,6.479,6.479,0,0,0-3.683.752c-.917.5-.887.406-.586,1.7.15.662.286,1.218.3,1.248a2.547,2.547,0,0,0,.616-.421c1.684-1.338,3.833-1.563,4.75-.466.346.406.692,1.578.511,1.759a13.845,13.845,0,0,1-1.864.3c-2.225.285-3.157.631-4.028,1.488a3.639,3.639,0,0,0-1.278,2.961,3.521,3.521,0,0,0,2.18,3.5,5.139,5.139,0,0,0,4.585-.406,2.368,2.368,0,0,1,.661-.406c.015.03.105.225.21.451.181.421.181.421,1.744.421h1.578l-.241-.646C397.888-367.265,397.828-368.257,397.753-371.609Zm-3.2.571c-.135,2.1-.812,2.961-2.33,2.961a1.324,1.324,0,0,1-1.488-.977,1.89,1.89,0,0,1,.406-2.1,3.391,3.391,0,0,1,2.3-.977c.421-.06.857-.12.977-.135C394.581-372.286,394.611-372.045,394.551-371.038Z" transform="translate(-345.269 379.011)" fill="#fff"/>
        <path id="패스_10888" data-name="패스 10888" d="M313.3-468.9a4.63,4.63,0,0,0,.652-2.889,4.736,4.736,0,0,0-.578-2.777l-.578-1.156h1.622V-477.4h-3.542v-1.864h-2.051v1.864h-3.561l.056.783c.056.783.074.8.82.857l.746.056-.559,1.156a4.656,4.656,0,0,0-.578,2.834,6.072,6.072,0,0,0,.391,2.535C307.783-465.605,311.53-465.456,313.3-468.9Zm-4.549-6.133c1.473-1.473,3.095.242,3.113,3.243.019,2.554-1.249,4.325-2.61,3.672C307.54-468.923,307.2-473.509,308.752-475.038Z" transform="translate(-305.266 479.27)" fill="#fff"/>
        <path id="패스_10889" data-name="패스 10889" d="M475.419-378.269h-1.488l-.9,2.435c-.481,1.353-1.218,3.352-1.608,4.449-.406,1.082-.737,1.969-.752,1.954-.03-.03-.737-2.029-1.578-4.449l-1.548-4.389h-1.623a5.075,5.075,0,0,0-1.638.135c0,.06,1.052,2.916,2.33,6.343,2.585,6.855,2.48,6.389,1.638,7.651-.556.842-1.157,1.112-2.616,1.2l-1.278.075-.045,1.082-.045,1.1h1.127c2.781,0,4.8-1.037,5.772-2.961.165-.316,1.082-2.57,2.029-5.005s2.18-5.562,2.721-6.945c.541-1.368.992-2.54.992-2.586A6.607,6.607,0,0,0,475.419-378.269Z" transform="translate(-410.609 378.381)" fill="#fff"/>
      </g>
    </g>
    <g id="그룹_32281" data-name="그룹 32281" transform="translate(469 3732)">
      <rect id="사각형_31504" data-name="사각형 31504" width="26" height="26" rx="3" transform="translate(-0.419 -0.243)" fill="#fff"/>
      <g id="그룹_32278" data-name="그룹 32278" transform="translate(2.319 1.16)">
        <g id="그룹_32277" data-name="그룹 32277" transform="translate(9.926 0)">
          <path id="패스_10890" data-name="패스 10890" d="M386.791,190.365a2.329,2.329,0,0,0-.165-.563,2.787,2.787,0,0,0-1.113-1.289,2.5,2.5,0,0,0-2.581.016,2.264,2.264,0,0,0-.849.911,2.721,2.721,0,0,0-.162.4,2.8,2.8,0,0,0,.176,2.178,1.1,1.1,0,0,0,.522.454.756.756,0,0,0,.675-.052.717.717,0,0,0,.251-.755,1.978,1.978,0,0,1,.024-1.053.819.819,0,0,1,.187-.3.678.678,0,0,1,.179-.122.75.75,0,0,1,.444-.073.853.853,0,0,1,.6.489,1.977,1.977,0,0,1,.163.78,11.773,11.773,0,0,1-.52,3.49q-.046.173-.1.345c-.025.088-.07.2-.014.287a.223.223,0,0,0,.1.079.391.391,0,0,0,.429-.153,6.229,6.229,0,0,0,1.421-2.484,7.971,7.971,0,0,0,.272-1.04,4.559,4.559,0,0,0,.052-1.543" transform="translate(-377.528 -182.741)" fill="#008b7d"/>
          <path id="패스_10891" data-name="패스 10891" d="M302.848,112.619a.3.3,0,0,0-.321-.284,1.523,1.523,0,0,0-.48.151,19.414,19.414,0,0,1-9.559.9c-.542-.078-1.09-.187-1.635-.272-.34-.053-.677-.131-1.022-.156a1.231,1.231,0,0,0-.894.171.944.944,0,0,0-.114,1.118,2.512,2.512,0,0,0,.973.94,2.353,2.353,0,0,0,1.274.435q1.815-.116,3.62-.35a24.2,24.2,0,0,0,6.127-1.313,7.719,7.719,0,0,0,1.791-1c.1-.073.239-.2.239-.339" transform="translate(-288.696 -110.378)" fill="#008b7d"/>
          <path id="패스_10892" data-name="패스 10892" d="M409.811,70.746a1.181,1.181,0,1,0,2.363,0,.671.671,0,0,0-.064-.284c-.1-.214-.215-.319-.2-.576.015-.347-.43-.352-.67-.352a1.739,1.739,0,0,0-.775.155,1.18,1.18,0,0,0-.652,1.03v.027" transform="translate(-404.275 -69.535)" fill="#008b7d"/>
        </g>
        <g id="그룹_32276" data-name="그룹 32276" transform="translate(0 8.349)">
          <path id="패스_10884-2" data-name="패스 10884" d="M389.677-475.389a5.076,5.076,0,0,0,1.4.054,10.422,10.422,0,0,0,1.353-.072c.1-.042.108.024.12.784l.018.826.317.018.311.018.006-1.437c.006-.8.018-1.473.024-1.5s.018-.1.024-.15c.006-.066.084-.09.335-.09h.329v-.539h-.652l-.018-.826-.018-.82-.3-.018a.813.813,0,0,0-.347.024,16.108,16.108,0,0,0-.042,1.616c0,1.437-.006,1.574-.1,1.616a11.7,11.7,0,0,1-2.287.03c-.12-.066-.126-.114-.138-1.55l-.018-1.479-.311-.018-.317-.018v1.562C389.366-475.677,389.384-475.551,389.677-475.389Z" transform="translate(-384.332 479.155)" fill="#008b7d"/>
          <path id="패스_10885-2" data-name="패스 10885" d="M313.91-378.2a12.274,12.274,0,0,0-1.449-.066h-1.1v6.645h1.317v-2.5l.676-.03a2.155,2.155,0,0,0,1.012-.18,2.265,2.265,0,0,0,1.048-1,1.523,1.523,0,0,0,.168-.9,1.555,1.555,0,0,0-.168-.91A1.986,1.986,0,0,0,313.91-378.2Zm-.85,3.227h-.377v-2.412l.443.03c.79.054,1.113.389,1.113,1.161A1.064,1.064,0,0,1,313.06-374.977Z" transform="translate(-311.001 384.315)" fill="#008b7d"/>
          <path id="패스_10886-2" data-name="패스 10886" d="M362.964-477.593v-1.676h-.6v5.388h.6v-3.173h.718v-.539h-.718Z" transform="translate(-358.948 479.27)" fill="#008b7d"/>
          <path id="패스_10887-2" data-name="패스 10887" d="M391.5-376.063c-.036-1.592-.042-1.688-.174-1.958a1.79,1.79,0,0,0-.91-.82,2,2,0,0,0-.958-.168,2.581,2.581,0,0,0-1.467.3c-.365.2-.353.162-.233.676.06.263.114.485.12.5a1.013,1.013,0,0,0,.245-.168c.67-.533,1.526-.622,1.892-.186.138.162.275.629.2.7a5.5,5.5,0,0,1-.742.12,2.432,2.432,0,0,0-1.6.593,1.449,1.449,0,0,0-.509,1.179,1.4,1.4,0,0,0,.868,1.395,2.046,2.046,0,0,0,1.826-.162.942.942,0,0,1,.263-.162l.084.18c.072.168.072.168.694.168h.629l-.1-.257A8.049,8.049,0,0,1,391.5-376.063Zm-1.275.227c-.054.838-.323,1.179-.928,1.179a.527.527,0,0,1-.593-.389.753.753,0,0,1,.162-.838,1.351,1.351,0,0,1,.916-.389l.389-.054C390.239-376.333,390.251-376.237,390.227-375.836Z" transform="translate(-382.451 385.013)" fill="#008b7d"/>
          <path id="패스_10888-2" data-name="패스 10888" d="M307.846-475.941a1.487,1.487,0,0,0,.21-.928,1.521,1.521,0,0,0-.186-.892l-.186-.371h.521v-.539h-1.137v-.6h-.658v.6h-1.143l.018.251c.018.252.024.257.263.275l.239.018-.18.371a1.5,1.5,0,0,0-.186.91,1.95,1.95,0,0,0,.126.814A1.2,1.2,0,0,0,307.846-475.941Zm-1.461-1.969c.473-.473.994.078,1,1.042.006.82-.4,1.389-.838,1.179C306-475.947,305.889-477.419,306.385-477.91Z" transform="translate(-305.266 479.269)" fill="#008b7d"/>
          <path id="패스_10889-2" data-name="패스 10889" d="M468.708-378.269h-.593l-.359.97c-.192.539-.485,1.335-.641,1.772s-.293.784-.3.778-.293-.808-.629-1.772l-.617-1.748h-.647a2.024,2.024,0,0,0-.653.054c0,.024.419,1.161.928,2.526,1.03,2.73.988,2.544.652,3.047-.222.335-.461.443-1.042.479l-.509.03-.018.431-.018.437h.449a2.38,2.38,0,0,0,2.3-1.179c.066-.126.431-1.024.808-1.993s.868-2.215,1.083-2.766.4-1.012.4-1.03A2.635,2.635,0,0,0,468.708-378.269Z" transform="translate(-454.748 384.315)" fill="#008b7d"/>
        </g>
      </g>
    </g>
  </g>
</svg>
