<svg xmlns="http://www.w3.org/2000/svg" width="40" height="40" viewBox="0 0 40 40">
  <g id="그룹_32327" data-name="그룹 32327" transform="translate(-441 -3623)">
    <rect id="사각형_31542" data-name="사각형 31542" width="40" height="40" transform="translate(441 3623)" fill="#ffc6c6" opacity="0"/>
    <g id="그룹_32327-2" data-name="그룹 32327" transform="translate(-892.496 3275.043)">
      <path id="패스_10937" data-name="패스 10937" d="M1339.144,398.341a.648.648,0,0,1-.648-.647V384.149a.649.649,0,0,1,.648-.648h3.87a.648.648,0,0,1,.647.648v3.472a.32.32,0,0,0,.321.32.308.308,0,0,0,.122-.025,9.83,9.83,0,0,1,3.648-.817,5.858,5.858,0,0,1,1.2.118,3,3,0,0,1,1.345.824,3.922,3.922,0,0,0,2.944,1.21,6.978,6.978,0,0,0,.782-.047,9.063,9.063,0,0,1,1.05-.065c2.531,0,3.832,1.249,4.2,2.418a.321.321,0,0,0,.3.223.342.342,0,0,0,.075-.009c.812-.2,1.707-.438,2.482-.65.744-.2,1.445-.392,2.023-.532a5,5,0,0,1,1.162-.153,2.189,2.189,0,0,1,2.177,1.346c.509,1.141.448,1.912-.18,2.293-2.267,1.375-10.187,4.1-12.4,4.1-2.09,0-8.281-1.827-10.847-2.612a.309.309,0,0,0-.093-.014.321.321,0,0,0-.321.32v1.828a.648.648,0,0,1-.647.647Zm.967-13.545a.321.321,0,0,0-.32.32v11.61a.321.321,0,0,0,.32.32h1.935a.32.32,0,0,0,.32-.32v-11.61a.32.32,0,0,0-.32-.32Zm7.645,3.6a8.907,8.907,0,0,0-3.921,1.074.322.322,0,0,0-.174.285v4.088a.32.32,0,0,0,.226.3c.9.28,8.867,2.732,11.036,2.732,1.82,0,9.048-2.449,11.423-3.735a.32.32,0,0,0,.155-.374,3.9,3.9,0,0,0-.178-.459.921.921,0,0,0-.984-.587,3.758,3.758,0,0,0-.869.125c-.546.133-1.2.308-1.987.524-1.208.329-2.712.738-3.8.937l-.038.01-.343.109a13.321,13.321,0,0,1-3.49.781,2.525,2.525,0,0,1-.55-.054c-1.015-.228-4.553-.823-4.584-.828a.647.647,0,0,1,.106-1.285.687.687,0,0,1,.112.009l.062.01c1.085.183,3.7.632,4.588.832a1.337,1.337,0,0,0,.284.027,13.1,13.1,0,0,0,2.962-.687.321.321,0,0,0,.2-.439,1.815,1.815,0,0,0-.4-.545,3.55,3.55,0,0,0-2.545-.81,7.756,7.756,0,0,0-.869.052,8.238,8.238,0,0,1-.943.057,5.122,5.122,0,0,1-3.78-1.526l-.013-.012a2.038,2.038,0,0,0-.75-.525A4.613,4.613,0,0,0,1347.756,388.394Z" transform="translate(0 -14.896)" fill="#757575"/>
      <path id="패스_10938" data-name="패스 10938" d="M1377.452,371.48a.648.648,0,0,1-.647-.648v-.139a.321.321,0,0,0-.225-.306,2.6,2.6,0,0,1-1.668-1.534.647.647,0,1,1,1.211-.458,1.459,1.459,0,0,0,2.229.464,1.149,1.149,0,0,0,.389-.851c0-.7-.941-1.178-1.512-1.4l-.016-.008h0c-2.038-.8-2.342-1.983-2.342-2.614a2.422,2.422,0,0,1,.816-1.81,2.641,2.641,0,0,1,.906-.53.321.321,0,0,0,.213-.3v-.183a.648.648,0,0,1,1.3,0v.139a.32.32,0,0,0,.225.306,2.606,2.606,0,0,1,1.668,1.534.649.649,0,0,1-.376.835.666.666,0,0,1-.229.042.65.65,0,0,1-.605-.419,1.459,1.459,0,0,0-2.227-.464,1.141,1.141,0,0,0-.39.852c0,.7.954,1.185,1.523,1.409l.012,0c2.031.8,2.335,1.98,2.335,2.611a2.426,2.426,0,0,1-.813,1.81,2.648,2.648,0,0,1-.908.53.32.32,0,0,0-.213.3v.183A.649.649,0,0,1,1377.452,371.48Z" transform="translate(-17.74 -3.684)" fill="#757575"/>
      <path id="패스_10939" data-name="패스 10939" d="M1371.006,371.666a9.355,9.355,0,1,1,9.355-9.355A9.365,9.365,0,0,1,1371.006,371.666Zm0-17.415a8.06,8.06,0,1,0,8.06,8.06A8.069,8.069,0,0,0,1371.006,354.251Z" transform="translate(-11.293 0)" fill="#757575"/>
    </g>
  </g>
</svg>
