<svg xmlns="http://www.w3.org/2000/svg" width="40" height="40" viewBox="0 0 40 40">
  <g id="그룹_32300" data-name="그룹 32300" transform="translate(-457 -3488)">
    <rect id="사각형_31517" data-name="사각형 31517" width="40" height="40" transform="translate(457 3488)" fill="#fff" opacity="0"/>
    <g id="그룹_32306" data-name="그룹 32306" transform="translate(-554.244 3012.191)">
      <path id="패스_10903" data-name="패스 10903" d="M1043.229,508.668h-17.75V507.58h17.206V496.307h-23.353V507.58h1.155v1.088h-1.7a.544.544,0,0,1-.544-.544V495.763a.544.544,0,0,1,.544-.544h24.441a.544.544,0,0,1,.544.544v12.361A.544.544,0,0,1,1043.229,508.668Z" transform="translate(0 -9.184)" fill="#757575"/>
      <path id="패스_10904" data-name="패스 10904" d="M1069.131,512.26a.725.725,0,1,1-.725-.725A.725.725,0,0,1,1069.131,512.26Z" transform="translate(-31.506 -19.582)" fill="#757575"/>
      <path id="패스_10905" data-name="패스 10905" d="M1049.1,511.891a2.468,2.468,0,1,1,2.468-2.468A2.471,2.471,0,0,1,1049.1,511.891Zm0-3.847a1.38,1.38,0,1,0,1.38,1.38A1.381,1.381,0,0,0,1049.1,508.044Z" transform="translate(-18.092 -16.664)" fill="#757575"/>
      <path id="패스_10906" data-name="패스 10906" d="M1047.162,510.347h-13.283v-1.088h12.739V502.8h-18.091v-1.088h18.635a.544.544,0,0,1,.544.544V509.8A.544.544,0,0,1,1047.162,510.347Z" transform="translate(-6.553 -13.322)" fill="#757575"/>
      <path id="패스_10907" data-name="패스 10907" d="M1035.527,528.551a8.684,8.684,0,0,1-8.674-8.674v-9.636a.544.544,0,0,1,.16-.385.565.565,0,0,1,.386-.158l1.98.011.056,0a2.326,2.326,0,0,1,2.074,2.306v5.24a4.772,4.772,0,0,1,4.221,4.734h-1.088a3.681,3.681,0,0,0-3.677-3.677.544.544,0,0,1-.544-.544v-5.751a1.238,1.238,0,0,0-1.079-1.223l-1.4-.008v9.089a7.586,7.586,0,1,0,15.172,0v-.926h1.088v.926A8.684,8.684,0,0,1,1035.527,528.551Z" transform="translate(-5.486 -18.41)" fill="#757575"/>
      <g id="그룹_32305" data-name="그룹 32305" transform="translate(1023.346 480.809)">
        <path id="패스_10908" data-name="패스 10908" d="M1044.108,486.017h-1.088v-.544a1.242,1.242,0,0,0-1.24-1.241h-1.785a.544.544,0,0,1-.544-.544v-.534a.615.615,0,0,1-.008-.07,1.235,1.235,0,0,0-1.233-1.188h-1.242v3.424a.544.544,0,0,1-.544.544.551.551,0,0,1-.551-.521,1.235,1.235,0,0,0-1.234-1.189H1033.4v1.861h-1.088v-2.405a.544.544,0,0,1,.544-.544h1.785a2.311,2.311,0,0,1,1.24.358v-2.072a.544.544,0,0,1,.544-.544h1.786a2.321,2.321,0,0,1,2.314,2.126.544.544,0,0,1,.015.127v.083h1.241a2.332,2.332,0,0,1,2.329,2.329Z" transform="translate(-1032.31 -480.809)" fill="#757575"/>
        <rect id="사각형_31518" data-name="사각형 31518" width="1.088" height="2.329" transform="translate(7.136 2.879)" fill="#757575"/>
        <rect id="사각형_31519" data-name="사각형 31519" width="1.088" height="0.696" transform="translate(3.57 4.512)" fill="#757575"/>
      </g>
    </g>
  </g>
</svg>
