<svg xmlns="http://www.w3.org/2000/svg" width="40" height="40" viewBox="0 0 40 40">
  <g id="그룹_32307" data-name="그룹 32307" transform="translate(-643 -3488)">
    <rect id="사각형_31531" data-name="사각형 31531" width="40" height="40" transform="translate(643 3488)" fill="#fff" opacity="0"/>
    <g id="그룹_32309" data-name="그룹 32309" transform="translate(-522.744 3011.5)">
      <g id="그룹_32307-2" data-name="그룹 32307" transform="translate(1170.222 493.388)">
        <path id="패스_10909" data-name="패스 10909" d="M1190.06,526.948h-17.983a1.857,1.857,0,0,1-1.855-1.855V513.5a1.857,1.857,0,0,1,1.855-1.855h17.983a1.857,1.857,0,0,1,1.855,1.855v11.6A1.857,1.857,0,0,1,1190.06,526.948Zm-17.983-14.293a.844.844,0,0,0-.843.843v11.6a.844.844,0,0,0,.843.843h17.983a.844.844,0,0,0,.843-.843V513.5a.844.844,0,0,0-.843-.843Z" transform="translate(-1170.222 -511.643)" fill="#757575"/>
        <rect id="사각형_31520" data-name="사각형 31520" width="1.068" height="1.012" transform="translate(2.533 11.331)" fill="#757575"/>
        <rect id="사각형_31521" data-name="사각형 31521" width="1.068" height="1.012" transform="translate(4.556 11.331)" fill="#757575"/>
        <rect id="사각형_31522" data-name="사각형 31522" width="1.068" height="1.012" transform="translate(6.58 11.331)" fill="#757575"/>
        <rect id="사각형_31523" data-name="사각형 31523" width="1.068" height="1.012" transform="translate(8.603 11.331)" fill="#757575"/>
        <rect id="사각형_31524" data-name="사각형 31524" width="1.068" height="1.012" transform="translate(11.863 11.331)" fill="#757575"/>
        <rect id="사각형_31525" data-name="사각형 31525" width="1.068" height="1.012" transform="translate(13.886 11.331)" fill="#757575"/>
        <rect id="사각형_31526" data-name="사각형 31526" width="1.068" height="1.012" transform="translate(15.91 11.331)" fill="#757575"/>
        <rect id="사각형_31527" data-name="사각형 31527" width="1.068" height="1.012" transform="translate(17.933 11.331)" fill="#757575"/>
        <path id="패스_10910" data-name="패스 10910" d="M1216.772,525.3h-3.862a.506.506,0,0,1-.506-.506v-3.862a.506.506,0,0,1,.506-.506h3.862a.506.506,0,0,1,.506.506V524.8A.506.506,0,0,1,1216.772,525.3Zm-3.356-1.012h2.85v-2.851h-2.85Z" transform="translate(-1198.18 -517.465)" fill="#757575"/>
      </g>
      <g id="그룹_32308" data-name="그룹 32308" transform="translate(1180.562 484.1)">
        <rect id="사각형_31528" data-name="사각형 31528" width="20.681" height="1.012" transform="translate(0.506 2.962)" fill="#757575"/>
        <rect id="사각형_31529" data-name="사각형 31529" width="20.681" height="1.012" transform="translate(0.506 6.824)" fill="#757575"/>
        <path id="패스_10911" data-name="패스 10911" d="M1220.722,499.4h-7.315v-1.012h7.315a.844.844,0,0,0,.843-.843V485.955a.844.844,0,0,0-.843-.843h-17.983a.844.844,0,0,0-.843.843v6.422h-1.012v-6.422a1.857,1.857,0,0,1,1.855-1.855h17.983a1.857,1.857,0,0,1,1.855,1.855V497.55A1.857,1.857,0,0,1,1220.722,499.4Z" transform="translate(-1200.884 -484.1)" fill="#757575"/>
        <rect id="사각형_31530" data-name="사각형 31530" width="5.48" height="1.012" transform="translate(13.79 9.288)" fill="#757575"/>
      </g>
    </g>
  </g>
</svg>
