<svg xmlns="http://www.w3.org/2000/svg" width="281" height="44.634" viewBox="0 0 281 44.634">
  <g id="LOGO" transform="translate(0 0.634)">
    <g id="그룹_34401" data-name="그룹 34401" transform="translate(65.001)">
      <path id="패스_10864" data-name="패스 10864" d="M-17956.223-24055.646s18.529-3.885,22.576-3.244" transform="translate(17956.223 24063.625)" fill="none" stroke="#000" stroke-linecap="round" stroke-width="1"/>
      <path id="패스_10865" data-name="패스 10865" d="M-17948.248-24063.562s-5.752,16.729,2.555,15.957" transform="translate(17956.234 24063.563)" fill="none" stroke="#000" stroke-linecap="round" stroke-width="1"/>
      <path id="패스_10866" data-name="패스 10866" d="M-17943.578-24059.969s-1.492,10.18-1.6,11.332c-.105,1.191,1.7-5.52,3.834-3.016s.852,1.508,3.941,2.055,8.094-3.242,8.094-3.242-.641-4.207-4.793,0,9.479,4.012,14.377.672" transform="translate(17955.723 24064.492)" fill="none" stroke="#000" stroke-linecap="round" stroke-linejoin="round" stroke-width="1"/>
    </g>
    <path id="패스_10867" data-name="패스 10867" d="M5.444-3.453C10.132.454,15.917-.336,15.917,2.824c0,1.668-2.323,2.151-3.252,2.151C4.9,4.975,5.4-2,2.4-2,1.137-2,.63-.819.63.366c0,2.239.971,6.892,3,8.077C6.035,9.8,10.807,10.55,13.595,10.55c9.84,0,13.894-5.794,13.894-10.93a8.145,8.145,0,0,0-3.927-7.287c-4.9-3.38-10.684-2.458-10.684-5.926,0-1.58,1.394-2.195,2.7-2.195,4.392,0,6.039,5,8.868,5a2.74,2.74,0,0,0,2.492-2.985c0-3.687-3.209-7.067-4.645-7.067-.887,0-1.478.615-2.069.615-.633,0-3.674-1.229-6.377-1.229-8.193,0-12.416,5.663-12.416,10.228A10.192,10.192,0,0,0,5.444-3.453ZM38.679.5c1.182,0,1.14,1.1,1.14,2.063,0,1.317-.127,3.117-1.731,3.117-1.225,0-1.816-1.229-1.816-2.37A2.651,2.651,0,0,1,38.679.5ZM48.941-4.945c0-6.584-6.588-7.55-9-7.55C35.934-12.5,28.8-10.081,28.8-6.35a2.319,2.319,0,0,0,2.365,2.414c3.758,0,4.012-4.741,6.546-4.741,1.943,0,1.985,3.029,1.985,4.477,0,1.58-.591,1.492-1.9,1.492-7.433,0-10.3,3.863-10.3,6.979,0,4.346,3.505,6.277,7.01,6.277a7.5,7.5,0,0,0,4.139-1.141c.929-.527,1.478-1.1,1.985-1.1,1.056,0,1.14,2.239,4.476,2.239,3.083,0,6.377-2.722,6.377-5.224,0-2.37-2.534,1.844-2.534-5.882ZM63.806-6.438c0-6.277.549-11.106.549-12.115,0-1.317-.338-2.283-1.774-2.283-.591,0-11.571.922-11.571,4.741,0,2.5,2.492,1.361,3.125,4.609a44.162,44.162,0,0,1,.3,6.979c0,2.151,0,7.638-.549,9.438-.507,1.624-2.323,1.053-2.323,2.59,0,3.117,5.912,2.9,7.813,2.9,1.816,0,6.968.219,6.968-2.722,0-1.844-1.9-1.1-2.365-2.678a13.438,13.438,0,0,1-.169-2.941ZM85.639-.161c1.351,0,2.618-.4,2.618-3.292,0-3.292-3.167-9.043-10.346-9.043A11.711,11.711,0,0,0,66.045-.819,11.056,11.056,0,0,0,77.574,10.55c3.8,0,9.755-2.458,9.755-5.838,0-.834-.76-2.195-1.647-2.195s-2.449,1.975-5.617,1.975c-1.985,0-4.73-1.844-4.73-4.038,0-.746.676-.615,1.14-.615ZM77.658-4.375c-1.1,0-2.534.351-2.534-1.229a2.87,2.87,0,0,1,2.534-2.9A2.534,2.534,0,0,1,80.15-5.691C80.15-4.111,78.8-4.375,77.658-4.375ZM97.042-12.5c-4.35,0-7.813,2.765-7.813,7.155,0,7.243,8.277,7.55,8.277,10.14a1.458,1.458,0,0,1-1.647,1.4c-2.365,0-4.054-4.346-5.912-4.346-1.225,0-1.6.922-1.6,2.063a10.015,10.015,0,0,0,2.112,5.4,2,2,0,0,0,1.858.834,4.507,4.507,0,0,0,.8-.088,5.513,5.513,0,0,1,.845-.088c.253,0,1.182.132,2.238.263a21.3,21.3,0,0,0,3.125.307c4.392,0,8.235-2.853,8.235-6.979,0-6.8-9.291-7.331-9.291-10.14a1.553,1.553,0,0,1,1.52-1.492c1.858,0,3.209,3.468,5.617,3.468a2.065,2.065,0,0,0,2.069-2.063c0-1.8-1.943-5.838-3.885-5.838a3.58,3.58,0,0,0-1.14.263,2.609,2.609,0,0,1-1.14.307c-.3,0-.971-.176-1.731-.307A12.117,12.117,0,0,0,97.042-12.5Zm22.34,23.045c6.208,0,13.64-4.39,13.64-11.588A11.455,11.455,0,0,0,121.408-12.5c-6.968,0-13.6,4.433-13.6,12.291C107.81,6.731,113.131,10.55,119.381,10.55ZM123.309,2.3c0,1.4-.338,2.809-1.943,2.722-2.914-.176-3.674-6.936-3.843-9.7a2.284,2.284,0,0,1,2.069-2.634C122.464-7.316,123.309.322,123.309,2.3Zm21.58-3.073c0-1.975-.253-5,2.449-5,3.97,0,2.787,7.023,2.576,10.14-.211,2.853-1.6,2.107-1.6,3.687,0,2.458,4.054,2.37,5.574,2.37,7.939,0,7.77-1.844,7.77-2.634,0-1.888-1.731-1.1-1.943-4.565-.422-6.672,1.056-15.583-7.686-15.583a5.764,5.764,0,0,0-4.519,1.8c-.845.922-1.225,1.844-1.9,1.844-.633,0-.845-.615-.845-1.141,0-.263.042-.527.042-.79a1.607,1.607,0,0,0-1.52-1.712c-.845,0-10.558,2.195-10.558,4.521s2.576,1.273,2.492,4.521l-.169,6.584c-.127,4.3-2.069,2.414-2.069,4.521,0,2.634,4.307,2.634,6,2.634,1.731,0,7.348.088,7.348-2.634,0-1.668-1.436-.922-1.436-5.18Zm37.2-11.72c-4.35,0-7.813,2.765-7.813,7.155,0,7.243,8.277,7.55,8.277,10.14a1.458,1.458,0,0,1-1.647,1.4c-2.365,0-4.054-4.346-5.912-4.346-1.225,0-1.6.922-1.6,2.063a10.015,10.015,0,0,0,2.112,5.4,2,2,0,0,0,1.858.834,4.507,4.507,0,0,0,.8-.088,5.513,5.513,0,0,1,.845-.088c.253,0,1.182.132,2.238.263a21.3,21.3,0,0,0,3.125.307c4.392,0,8.235-2.853,8.235-6.979,0-6.8-9.291-7.331-9.291-10.14a1.553,1.553,0,0,1,1.52-1.492c1.858,0,3.209,3.468,5.617,3.468a2.065,2.065,0,0,0,2.069-2.063c0-1.8-1.943-5.838-3.885-5.838a3.58,3.58,0,0,0-1.14.263,2.609,2.609,0,0,1-1.14.307c-.3,0-.971-.176-1.731-.307A12.117,12.117,0,0,0,182.093-12.5Zm23.691,6.409c0-1.58.084-1.624,1.563-1.624h2.914c1.647,0,1.943-.176,1.943-2.678,0-1.975,0-2.107-1.816-2.107h-2.956c-1.1,0-1.394,0-1.52-.351a13.991,13.991,0,0,1-.127-3.248c0-2.019-.084-1.844-1.774-1.844-1.267,0-1.225-.132-2.2.483l-9.628,6.365c-.507.351-.38.834-.38,1.449,0,1.01-.084,1.449.211,1.756.211.219.76.176,1.858.176.971,0,1.436-.088,1.647.044s.211.439.211,1.229V2.6c0,6.979,5.405,7.945,7.559,7.945,4.265,0,9.079-2.546,9.079-5.443,0-.79-.591-2.019-1.436-2.019-.76,0-1.52,1.01-2.829,1.01-1.14,0-2.323-.7-2.323-3.643ZM223.521,10.55c6.208,0,13.64-4.39,13.64-11.588A11.455,11.455,0,0,0,225.548-12.5c-6.968,0-13.6,4.433-13.6,12.291C211.95,6.731,217.271,10.55,223.521,10.55ZM227.449,2.3c0,1.4-.338,2.809-1.943,2.722-2.914-.176-3.674-6.936-3.843-9.7a2.284,2.284,0,0,1,2.069-2.634C226.6-7.316,227.449.322,227.449,2.3ZM239.738-.731a22.54,22.54,0,0,1-.465,4.829c-.465,1.536-2.407,1.536-2.407,3.38,0,3.029,5.743,2.941,7.686,2.941,4.645,0,8.362-.219,8.362-2.985,0-2.634-3.21-1.449-3.463-3.38a41.856,41.856,0,0,1-.338-4.829c0-.79-.211-3.731.971-3.731,1.1,0,1.858,2.5,4.6,2.5a5.263,5.263,0,0,0,5.194-5.267c0-2.9-1.858-5.092-4.688-5.092-3.632,0-4.265,3.468-5.279,3.468-.718,0-.676-1.01-.718-1.536-.169-1.492-.211-1.931-1.816-1.931-.38,0-10.262.966-10.262,4.433,0,2.678,2.618.263,2.618,4.565Zm39.274.571c1.351,0,2.618-.4,2.618-3.292,0-3.292-3.167-9.043-10.346-9.043A11.711,11.711,0,0,0,259.417-.819,11.056,11.056,0,0,0,270.946,10.55c3.8,0,9.755-2.458,9.755-5.838,0-.834-.76-2.195-1.647-2.195s-2.449,1.975-5.617,1.975c-1.985,0-4.73-1.844-4.73-4.038,0-.746.676-.615,1.14-.615ZM271.03-4.375c-1.1,0-2.534.351-2.534-1.229a2.87,2.87,0,0,1,2.534-2.9,2.534,2.534,0,0,1,2.492,2.809C273.522-4.111,272.17-4.375,271.03-4.375Z" transform="translate(-0.63 33.45)"/>
  </g>
</svg>
