<svg id="ic_1:1" xmlns="http://www.w3.org/2000/svg" width="30" height="30" viewBox="0 0 30 30">
  <rect id="사각형_26362" data-name="사각형 26362" width="30" height="30" fill="rgba(255,133,133,0)" opacity="0.36"/>
  <g id="그룹_31119" data-name="그룹 31119" transform="translate(-471.5 -634.5)">
    <rect id="사각형_31064" data-name="사각형 31064" width="24" height="24" transform="translate(474.5 637.5)" fill="red" opacity="0"/>
    <g id="Layer_25" data-name="Layer 25" transform="translate(473.441 635.5)">
      <path id="패스_10797" data-name="패스 10797" d="M21.032,18.043a.8.8,0,0,1-.513-.184l-3.626-3.024H15.417A6.417,6.417,0,0,1,15.417,2H20.23a6.417,6.417,0,0,1,1.6,12.626v2.615a.8.8,0,0,1-.8.8ZM15.417,3.6a4.813,4.813,0,0,0,0,9.626h1.765a.8.8,0,0,1,.513.184l2.535,2.11V13.968a.8.8,0,0,1,.69-.8A4.813,4.813,0,0,0,20.23,3.6Z" transform="translate(-1.571)"/>
      <rect id="사각형_31128" data-name="사각형 31128" width="1.604" height="1.604" rx="0.802" transform="translate(15.451 7.615)"/>
      <rect id="사각형_31129" data-name="사각형 31129" width="1.604" height="1.604" rx="0.802" transform="translate(11.44 7.615)"/>
      <rect id="사각형_31130" data-name="사각형 31130" width="1.604" height="1.604" rx="0.802" transform="translate(19.461 7.615)"/>
      <path id="패스_10798" data-name="패스 10798" d="M6.627,26.167a.8.8,0,0,1-.8-.8V22.75A6.417,6.417,0,0,1,4.8,10.717a.8.8,0,1,1,.658,1.46,4.813,4.813,0,0,0,1.283,9.145.8.8,0,0,1,.69.8V23.68l2.535-2.11a.8.8,0,0,1,.513-.217h1.765a4.765,4.765,0,0,0,3.441-1.46.806.806,0,0,1,1.155,1.123,6.417,6.417,0,0,1-4.6,1.941H10.766L7.14,25.982A.8.8,0,0,1,6.627,26.167Z" transform="translate(0 -1.706)"/>
    </g>
  </g>
</svg>
