<svg xmlns="http://www.w3.org/2000/svg" width="21.766" height="23.02" viewBox="0 0 21.766 23.02">
  <path id="패스_10849" data-name="패스 10849" d="M191.339,247.377c-6.01,0-10.883,4.507-10.883,10.066,0,4.106,1.72,6.066,4.075,7.853l.011,0v4.819a.276.276,0,0,0,.442.222l4.127-3.066.089.039a11.768,11.768,0,0,0,2.139.195c6.011,0,10.883-4.507,10.883-10.066s-4.872-10.066-10.883-10.066m-3.648,12.617a2.272,2.272,0,0,0,2.253-1.625h1.578a3.776,3.776,0,0,1-3.832,3.143,4.08,4.08,0,1,1,0-8.161,3.78,3.78,0,0,1,3.843,3.2h-1.573a2.244,2.244,0,0,0-2.27-1.7,2.463,2.463,0,0,0-2.561,2.584,2.527,2.527,0,0,0,2.561,2.562m10.4,1.361h-1.446v-3.262a1.038,1.038,0,0,0-1.11-1.154c-.751,0-1.233.459-1.233,1.39v3.027h-1.446v-7.978H194.3v3a1.854,1.854,0,0,1,1.67-.785,1.985,1.985,0,0,1,1.513.616,2.329,2.329,0,0,1,.605,1.7Z" transform="translate(-180.456 -247.377)"/>
</svg>
