<svg xmlns="http://www.w3.org/2000/svg" width="13.498" height="7.504" viewBox="0 0 13.498 7.504">
  <path id="합치기_245" data-name="합치기 245" d="M-9010,24053.248a.748.748,0,0,1,.53.221l5.466,5.471,5.472-5.473a.75.75,0,0,1,1.061,0,.751.751,0,0,1,.22.531.751.751,0,0,1-.22.531l-6,6h0s0,0,0,0h0v0h0s0,0,0,0h0s0,0,0,0h0s0,0,0,0h0l0,0h0s0,0,0,0h0v0h0a.746.746,0,0,1-.358.188h-.007v0a.747.747,0,0,1-.147.014.744.744,0,0,1-.517-.207h0s0,0,0,0h0l0,0h0l0,0h0s0,0,0,0h0s0,0,0,0h0v0h0v0h0l-6-6a.746.746,0,0,1-.22-.529.751.751,0,0,1,.22-.531A.747.747,0,0,1-9010,24053.248Z" transform="translate(9010.748 -24053.246)"/>
</svg>
