<svg id="ic_heart" xmlns="http://www.w3.org/2000/svg" width="30" height="30" viewBox="0 0 30 30">
  <rect id="사각형_778" data-name="사각형 778" width="30" height="30" fill="none" opacity="0.39"/>
  <g id="ic_heart-2" data-name="ic_heart">
    <rect id="사각형_26362" data-name="사각형 26362" width="30" height="30" fill="rgba(255,133,133,0)" opacity="0.36"/>
    <g id="패스_10789" data-name="패스 10789" transform="translate(5 6)" fill="none">
      <path d="M10,18S1.8,11.136.647,8.4C-2.452,1.067,6.4-2.44,10,1.889,13.6-2.44,22.452,1.067,19.353,8.4,18.2,11.136,10,18,10,18Z" stroke="none"/>
      <path d="M 9.997395515441895 16.02842330932617 C 10.7913703918457 15.34060764312744 11.98466968536377 14.28798484802246 13.21678256988525 13.13216590881348 C 16.96769332885742 9.613505363464355 17.79163360595703 8.242255210876465 17.97170257568359 7.816185474395752 C 18.7015438079834 6.088735580444336 18.6741828918457 4.55262565612793 17.89260292053223 3.373925685882568 C 17.13775253295898 2.235565662384033 15.68074321746826 1.500005722045898 14.18067264556885 1.500005722045898 C 12.9516429901123 1.500005722045898 11.87640285491943 1.978765726089478 11.15303325653076 2.848105669021606 L 10.00000286102295 4.233785629272461 L 8.846972465515137 2.848105669021606 C 8.123602867126465 1.978765726089478 7.048362731933594 1.500005722045898 5.819333076477051 1.500005722045898 C 4.31945276260376 1.500005722045898 2.862512826919556 2.235625743865967 2.10761284828186 3.374075651168823 C 1.325962901115417 4.552855491638184 1.298542857170105 6.088915824890137 2.02823281288147 7.816025733947754 C 2.662370920181274 9.316463470458984 6.782672882080078 13.25332927703857 9.997395515441895 16.02842330932617 M 10.00000286102295 18.0000057220459 C 10.00000286102295 18.0000057220459 1.803072810173035 11.13640594482422 0.6465628743171692 8.399965286254883 C -2.451687335968018 1.066665172576904 6.397843360900879 -2.440343618392944 10.00000286102295 1.888665676116943 C 13.6021614074707 -2.440341949462891 22.45170402526855 1.066664338111877 19.35344314575195 8.399965286254883 C 18.19693374633789 11.13640594482422 10.00000286102295 18.0000057220459 10.00000286102295 18.0000057220459 Z" stroke="none" fill="#000"/>
    </g>
  </g>
</svg>
