<svg id="ic_starfull_01" xmlns="http://www.w3.org/2000/svg" width="115" height="22" viewBox="0 0 115 22">
  <g id="ic_star">
    <path id="다각형_2" data-name="다각형 2" d="M10.557,2.685a1,1,0,0,1,1.887,0l1.7,4.846a1,1,0,0,0,.918.668l5.12.132a1,1,0,0,1,.585,1.792l-4.075,3.141a1,1,0,0,0-.349,1.075L17.8,19.281a1,1,0,0,1-1.528,1.105l-4.208-2.912a1,1,0,0,0-1.138,0L6.723,20.387A1,1,0,0,1,5.2,19.281l1.459-4.943a1,1,0,0,0-.349-1.075L2.231,10.123a1,1,0,0,1,.585-1.792L7.936,8.2a1,1,0,0,0,.918-.668Z" fill="#802bc5"/>
  </g>
  <g id="ic_star-2" data-name="ic_star" transform="translate(23)">
    <path id="다각형_2-2" data-name="다각형 2" d="M10.557,2.685a1,1,0,0,1,1.887,0l1.7,4.846a1,1,0,0,0,.918.668l5.12.132a1,1,0,0,1,.585,1.792l-4.075,3.141a1,1,0,0,0-.349,1.075L17.8,19.281a1,1,0,0,1-1.528,1.105l-4.208-2.912a1,1,0,0,0-1.138,0L6.723,20.387A1,1,0,0,1,5.2,19.281l1.459-4.943a1,1,0,0,0-.349-1.075L2.231,10.123a1,1,0,0,1,.585-1.792L7.936,8.2a1,1,0,0,0,.918-.668Z" fill="#802bc5"/>
  </g>
  <g id="ic_star-3" data-name="ic_star" transform="translate(46)">
    <path id="다각형_2-3" data-name="다각형 2" d="M10.557,2.685a1,1,0,0,1,1.887,0l1.7,4.846a1,1,0,0,0,.918.668l5.12.132a1,1,0,0,1,.585,1.792l-4.075,3.141a1,1,0,0,0-.349,1.075L17.8,19.281a1,1,0,0,1-1.528,1.105l-4.208-2.912a1,1,0,0,0-1.138,0L6.723,20.387A1,1,0,0,1,5.2,19.281l1.459-4.943a1,1,0,0,0-.349-1.075L2.231,10.123a1,1,0,0,1,.585-1.792L7.936,8.2a1,1,0,0,0,.918-.668Z" fill="#802bc5"/>
  </g>
  <g id="ic_star-4" data-name="ic_star" transform="translate(69)">
    <path id="다각형_2-4" data-name="다각형 2" d="M10.557,2.685a1,1,0,0,1,1.887,0l1.7,4.846a1,1,0,0,0,.918.668l5.12.132a1,1,0,0,1,.585,1.792l-4.075,3.141a1,1,0,0,0-.349,1.075L17.8,19.281a1,1,0,0,1-1.528,1.105l-4.208-2.912a1,1,0,0,0-1.138,0L6.723,20.387A1,1,0,0,1,5.2,19.281l1.459-4.943a1,1,0,0,0-.349-1.075L2.231,10.123a1,1,0,0,1,.585-1.792L7.936,8.2a1,1,0,0,0,.918-.668Z" fill="#802bc5"/>
  </g>
  <g id="ic_star-5" data-name="ic_star" transform="translate(92)">
    <path id="다각형_2-5" data-name="다각형 2" d="M10.557,2.685a1,1,0,0,1,1.887,0l1.7,4.846a1,1,0,0,0,.918.668l5.12.132a1,1,0,0,1,.585,1.792l-4.075,3.141a1,1,0,0,0-.349,1.075L17.8,19.281a1,1,0,0,1-1.528,1.105l-4.208-2.912a1,1,0,0,0-1.138,0L6.723,20.387A1,1,0,0,1,5.2,19.281l1.459-4.943a1,1,0,0,0-.349-1.075L2.231,10.123a1,1,0,0,1,.585-1.792L7.936,8.2a1,1,0,0,0,.918-.668Z" fill="#802bc5"/>
  </g>
</svg>
