<svg id="ic_review_quotes" xmlns="http://www.w3.org/2000/svg" width="28" height="18" viewBox="0 0 28 18">
  <path id="패스_4089" data-name="패스 4089" d="M73.655,156.833a5.429,5.429,0,1,1,0,10.857,5.711,5.711,0,0,1-4.294-2.038c-4.868-5.562-1.256-15.962,6.693-15.962v2.735s-4.223,1.129-4.4,4.777A5.551,5.551,0,0,1,73.655,156.833Z" transform="translate(-67.155 -149.69)" fill="#e1e1e1" fill-rule="evenodd"/>
  <path id="패스_4090" data-name="패스 4090" d="M73.655,156.833a5.429,5.429,0,1,1,0,10.857,5.711,5.711,0,0,1-4.294-2.038c-4.868-5.562-1.256-15.962,6.693-15.962v2.735s-4.223,1.129-4.4,4.777A5.551,5.551,0,0,1,73.655,156.833Z" transform="translate(-51.155 -149.69)" fill="#e1e1e1" fill-rule="evenodd"/>
</svg>
