<svg id="ic_eye" xmlns="http://www.w3.org/2000/svg" width="30" height="30" viewBox="0 0 30 30">
  <rect id="사각형_31752" data-name="사각형 31752" width="30" height="30" transform="translate(30) rotate(90)" fill="#fff" opacity="0"/>
  <g id="그룹_33917" data-name="그룹 33917" transform="translate(-1308 -835)">
    <g id="패스_10881" data-name="패스 10881" transform="translate(1311 844)" fill="#fff" stroke-linecap="round" stroke-linejoin="round">
      <path d="M 12 11.5 C 8.705340385437012 11.5 5.72169017791748 9.916769981384277 3.798890113830566 8.588600158691406 C 2.301465749740601 7.554263114929199 1.203118681907654 6.51564884185791 0.691994309425354 6.000196933746338 C 1.20654821395874 5.481701850891113 2.315226554870605 4.433714389801025 3.819250106811523 3.397350072860718 C 5.737450122833252 2.075589895248413 8.71382999420166 0.5 12 0.5 C 15.29465961456299 0.5 18.27831077575684 2.083230018615723 20.20111083984375 3.411400079727173 C 21.69853401184082 4.445736885070801 22.7968807220459 5.48435115814209 23.30800628662109 5.999803066253662 C 22.7934513092041 6.518298149108887 21.68477439880371 7.566285610198975 20.18074989318848 8.602649688720703 C 18.26255035400391 9.924409866333008 15.28617000579834 11.5 12 11.5 Z" stroke="none"/>
      <path d="M 12 1 C 8.850790023803711 1 5.97831916809082 2.52001953125 4.123170852661133 3.795149803161621 C 2.929389953613281 4.615694046020508 1.989086151123047 5.444855213165283 1.406835556030273 5.999906063079834 C 2.979892730712891 7.498334407806396 7.172971725463867 11 12 11 C 15.14920997619629 11 18.02167892456055 9.47998046875 19.8768310546875 8.204850196838379 C 21.07061004638672 7.384305953979492 22.01091384887695 6.555144786834717 22.59316635131836 6.000093936920166 C 21.02010726928711 4.501665592193604 16.82702827453613 1 12 1 M 12 0 C 18.62742042541504 0 24 6 24 6 C 24 6 18.62742042541504 12 12 12 C 5.372579574584961 12 0 6 0 6 C 0 6 5.372579574584961 0 12 0 Z" stroke="none" fill="#1f1f1f"/>
    </g>
    <g id="타원_1890" data-name="타원 1890" transform="translate(1319 846)" fill="#fff" stroke="#1f1f1f" stroke-linecap="round" stroke-linejoin="round" stroke-width="1">
      <circle cx="4" cy="4" r="4" stroke="none"/>
      <circle cx="4" cy="4" r="3.5" fill="none"/>
    </g>
  </g>
</svg>
