<svg xmlns="http://www.w3.org/2000/svg" width="14.003" height="14" viewBox="0 0 14.003 14">
  <g id="그룹_37491" data-name="그룹 37491" transform="translate(10509.999 -8569.998)">
    <ellipse id="타원_1054" data-name="타원 1054" cx="6.126" cy="7" rx="6.126" ry="7" transform="translate(-10509.999 8569.998)" fill="#fff"/>
    <path id="타원_1054_-_윤곽선" data-name="타원 1054 - 윤곽선" d="M6.126,1C3.3,1,1,3.692,1,7s2.3,6,5.126,6,5.126-2.692,5.126-6-2.3-6-5.126-6m0-1c3.383,0,6.126,3.134,6.126,7s-2.743,7-6.126,7S0,10.866,0,7,2.743,0,6.126,0Z" transform="translate(-10509.999 8569.998)"/>
    <path id="사각형_26037" data-name="사각형 26037" d="M4,0h6a4,4,0,0,1,4,4V14a0,0,0,0,1,0,0H4a4,4,0,0,1-4-4V4A4,4,0,0,1,4,0Z" transform="translate(-10509.999 8569.998)" fill="#fff"/>
    <path id="사각형_26037_-_윤곽선" data-name="사각형 26037 - 윤곽선" d="M4,1A3,3,0,0,0,1,4v6a3,3,0,0,0,3,3h9V4a3,3,0,0,0-3-3H4M4,0h6a4,4,0,0,1,4,4V14H4a4,4,0,0,1-4-4V4A4,4,0,0,1,4,0Z" transform="translate(-10509.999 8569.998)"/>
    <circle id="타원_1055" data-name="타원 1055" cx="1" cy="1" r="1" transform="translate(-10506.994 8575.994)"/>
    <circle id="타원_1056" data-name="타원 1056" cx="1" cy="1" r="1" transform="translate(-10503.994 8575.994)"/>
    <circle id="타원_1057" data-name="타원 1057" cx="1" cy="1" r="1" transform="translate(-10500.994 8575.994)"/>
  </g>
</svg>
