<svg id="ic_heart" xmlns="http://www.w3.org/2000/svg" width="24" height="24" viewBox="0 0 24 24">
  <rect id="사각형_26362" data-name="사각형 26362" width="24" height="24" fill="rgba(255,133,133,0)" opacity="0.36"/>
  <g id="패스_10412" data-name="패스 10412" transform="translate(0.8 1.92)" fill="#8559ee">
    <path d="M 11.20000076293945 19.17815589904785 C 8.398654937744141 16.79256057739258 2.360783338546753 11.35387420654297 1.414970755577087 9.115994453430176 C 0.4705807566642761 6.880684852600098 0.5295207500457764 4.857424736022949 1.585440754890442 3.2650146484375 C 2.614110708236694 1.713704705238342 4.504020690917969 0.7500046491622925 6.517650604248047 0.7500046491622925 C 8.175320625305176 0.7500046491622925 9.63347053527832 1.405244708061218 10.62348079681396 2.595024585723877 L 11.20000076293945 3.287864685058594 L 11.77652072906494 2.595024585723877 C 12.76653099060059 1.405244708061218 14.22468090057373 0.7500046491622925 15.88235092163086 0.7500046491622925 C 17.89619064331055 0.7500046491622925 19.78619003295898 1.713634610176086 20.81478118896484 3.264834642410278 C 21.87065124511719 4.857164859771729 21.92950057983398 6.880484580993652 20.98498153686523 9.116074562072754 C 20.03920555114746 11.35387897491455 14.00134563446045 16.79256057739258 11.20000076293945 19.17815589904785 Z" stroke="none"/>
    <path d="M 11.20000076293945 18.18724822998047 C 12.09052848815918 17.41758728027344 13.49091243743896 16.18582534790039 14.93558120727539 14.83024501800537 C 19.15373039245605 10.87223434448242 20.08821105957031 9.311374664306641 20.29411125183105 8.82419490814209 C 21.13613128662109 6.831204891204834 21.10003089904785 5.05213451385498 20.18972015380859 3.679314613342285 C 19.2983512878418 2.335064649581909 17.64786148071289 1.500004649162292 15.88235092163086 1.500004649162292 C 14.4514102935791 1.500004649162292 13.19801044464111 2.05925464630127 12.35303115844727 3.074734687805176 L 11.20000076293945 4.460434436798096 L 10.04697036743164 3.074744701385498 C 9.201980590820312 2.05925464630127 7.948580741882324 1.500004649162292 6.517650604248047 1.500004649162292 C 4.752340793609619 1.500004649162292 3.101940870285034 2.335134744644165 2.210500717163086 3.679494619369507 C 1.300130724906921 5.052404880523682 1.263950705528259 6.831414699554443 2.105810880661011 8.824024200439453 C 2.311780691146851 9.311374664306641 3.24626088142395 10.87223434448242 7.464410781860352 14.83024501800537 C 8.909085273742676 16.18582534790039 10.30947113037109 17.41758728027344 11.20000076293945 18.18724822998047 M 11.20000076293945 20.16000556945801 C 11.20000076293945 20.16000556945801 2.019440650939941 12.47277450561523 0.7241407632827759 9.407964706420898 C -2.745889186859131 1.19466507434845 7.165580749511719 -2.7331862449646 11.20000076293945 2.115304708480835 C 15.23442077636719 -2.733185768127441 25.14590072631836 1.194664835929871 21.67584991455078 9.407964706420898 C 20.38055038452148 12.47277450561523 11.20000076293945 20.16000556945801 11.20000076293945 20.16000556945801 Z" stroke="none" fill="#8559ee"/>
  </g>
</svg>
