<svg id="ic_rock" xmlns="http://www.w3.org/2000/svg" width="18" height="18" viewBox="0 0 18 18">
  <rect id="사각형_31846" data-name="사각형 31846" width="18" height="18" fill="rgba(255,133,133,0)" opacity="0.36"/>
  <g id="그룹_36212" data-name="그룹 36212" transform="translate(-1245 -589)">
    <g id="사각형_31852" data-name="사각형 31852" transform="translate(1249 589)" fill="#fff" stroke="#000" stroke-width="1">
      <path d="M5,0H5a5,5,0,0,1,5,5V8a0,0,0,0,1,0,0H0A0,0,0,0,1,0,8V5A5,5,0,0,1,5,0Z" stroke="none"/>
      <path d="M5,.5H5A4.5,4.5,0,0,1,9.5,5V7.5a0,0,0,0,1,0,0H.5a0,0,0,0,1,0,0V5A4.5,4.5,0,0,1,5,.5Z" fill="none"/>
    </g>
    <g id="사각형_31851" data-name="사각형 31851" transform="translate(1247 595)" fill="#fff" stroke="#000" stroke-width="1">
      <rect width="14" height="12" rx="2" stroke="none"/>
      <rect x="0.5" y="0.5" width="13" height="11" rx="1.5" fill="none"/>
    </g>
    <g id="그룹_36211" data-name="그룹 36211" transform="translate(0.511 0.852)">
      <path id="합치기_242" data-name="합치기 242" d="M.99,0A.989.989,0,1,1,0,.989.989.989,0,0,1,.99,0Z" transform="translate(1252.501 597.996)"/>
      <line id="선_717" data-name="선 717" y2="3" transform="translate(1253.491 599.648)" fill="none" stroke="#000" stroke-width="1"/>
    </g>
  </g>
</svg>
