<svg id="ic_rink_toss" xmlns="http://www.w3.org/2000/svg" width="22" height="22" viewBox="0 0 22 22">
  <rect id="사각형_37387" data-name="사각형 37387" width="22" height="22" fill="#fff" opacity="0"/>
  <g id="그룹_42563" data-name="그룹 42563" transform="translate(-7271.492 -811.656)">
    <path id="패스_11289" data-name="패스 11289" d="M7291.738,927.637a3.715,3.715,0,0,1-3.711,3.711h-8.922a3.715,3.715,0,0,1-3.71-3.711v-8.922a3.715,3.715,0,0,1,3.71-3.711h4.461v1.285h-4.461a2.429,2.429,0,0,0-2.426,2.426v8.922a2.428,2.428,0,0,0,2.426,2.426h8.922a2.429,2.429,0,0,0,2.426-2.426v-4.461h1.285Z" transform="translate(0 -101.294)"/>
    <path id="패스_11290" data-name="패스 11290" d="M7774.89,817.775h-1.284V813.9l-6.124,6.378-.927-.89,6.186-6.442h-3.969v-1.285h6.118Z" transform="translate(-481.398)"/>
    <path id="패스_11291" data-name="패스 11291" d="M7291.738,927.637a3.715,3.715,0,0,1-3.711,3.711h-8.922a3.715,3.715,0,0,1-3.71-3.711v-8.922a3.715,3.715,0,0,1,3.71-3.711v1.285a2.429,2.429,0,0,0-2.426,2.426v8.922a2.428,2.428,0,0,0,2.426,2.426h8.922a2.429,2.429,0,0,0,2.426-2.426Z" transform="translate(-3 -98.294)"/>
  </g>
</svg>
