<svg xmlns="http://www.w3.org/2000/svg" xmlns:xlink="http://www.w3.org/1999/xlink" width="16" height="16" viewBox="0 0 16 16">
  <defs>
    <clipPath id="clip-path">
      <rect id="사각형_32741" data-name="사각형 32741" width="16" height="16" transform="translate(1590 726)" fill="#fff" stroke="#707070" stroke-width="1"/>
    </clipPath>
  </defs>
  <g id="마스크_그룹_592" data-name="마스크 그룹 592" transform="translate(-1590 -726)" clip-path="url(#clip-path)">
    <g id="그룹_37492" data-name="그룹 37492" transform="translate(1 -5)">
      <g id="사각형_3425" data-name="사각형 3425" transform="translate(1589 731)" fill="rgba(255,255,255,0)" stroke="#7c7e80" stroke-width="1">
        <rect width="16" height="16" rx="8" stroke="none"/>
        <rect x="0.5" y="0.5" width="15" height="15" rx="7.5" fill="none"/>
      </g>
      <path id="합치기_244" data-name="합치기 244" d="M10773-1916.256a.817.817,0,0,1,.814-.817.818.818,0,0,1,.816.817.815.815,0,0,1-.816.814A.815.815,0,0,1,10773-1916.256Zm.333-1.45a.653.653,0,0,1-.179-.492,4.262,4.262,0,0,1,.414-2.018,2.986,2.986,0,0,1,.936-1.014l.146-.1a2.213,2.213,0,0,0,.457-.376,1.118,1.118,0,0,0,.2-.784,1.035,1.035,0,0,0-.427-.817,1.774,1.774,0,0,0-1.068-.368,1.587,1.587,0,0,0-1.507,1.036.686.686,0,0,1-.657.5.7.7,0,0,1-.148-.016.654.654,0,0,1-.4-.311.668.668,0,0,1-.078-.5,2.842,2.842,0,0,1,2.791-2.031,3.016,3.016,0,0,1,1.9.663,2.388,2.388,0,0,1,.923,1.844,2.524,2.524,0,0,1-.477,1.6,3.081,3.081,0,0,1-.743.655c-.047.03-.093.062-.136.092a1.573,1.573,0,0,0-.541.563,2.978,2.978,0,0,0-.26,1.39.662.662,0,0,1-.176.492.665.665,0,0,1-.483.222A.654.654,0,0,1,10773.332-1917.705Z" transform="translate(-9177 2659)" fill="#7c7e80"/>
    </g>
  </g>
</svg>
